<svg xmlns="http://www.w3.org/2000/svg" xmlns:rdkit="http://www.rdkit.org/xml" xmlns:xlink="http://www.w3.org/1999/xlink" version="1.1" baseProfile="full" xml:space="preserve" width="600px" height="400px" viewBox="0 0 600 400">
<!-- END OF HEADER -->
<rect style="opacity:1.0;fill:#FFFFFF;stroke:none" width="600.0" height="400.0" x="0.0" y="0.0"> </rect>
<path class="bond-0 atom-0 atom-1" d="M 28.3,165.9 L 38.6,159.9" style="fill:none;fill-rule:evenodd;stroke:#000000;stroke-width:2.0px;stroke-linecap:butt;stroke-linejoin:miter;stroke-opacity:1"/>
<path class="bond-0 atom-0 atom-1" d="M 38.6,159.9 L 48.9,154.0" style="fill:none;fill-rule:evenodd;stroke:#FF0000;stroke-width:2.0px;stroke-linecap:butt;stroke-linejoin:miter;stroke-opacity:1"/>
<path class="bond-1 atom-1 atom-2" d="M 53.7,146.1 L 53.7,134.0" style="fill:none;fill-rule:evenodd;stroke:#FF0000;stroke-width:2.0px;stroke-linecap:butt;stroke-linejoin:miter;stroke-opacity:1"/>
<path class="bond-1 atom-1 atom-2" d="M 53.7,134.0 L 53.7,122.0" style="fill:none;fill-rule:evenodd;stroke:#000000;stroke-width:2.0px;stroke-linecap:butt;stroke-linejoin:miter;stroke-opacity:1"/>
<path class="bond-2 atom-2 atom-3" d="M 53.7,122.0 L 28.3,107.3" style="fill:none;fill-rule:evenodd;stroke:#000000;stroke-width:2.0px;stroke-linecap:butt;stroke-linejoin:miter;stroke-opacity:1"/>
<path class="bond-2 atom-2 atom-3" d="M 53.7,116.9 L 32.7,104.8" style="fill:none;fill-rule:evenodd;stroke:#000000;stroke-width:2.0px;stroke-linecap:butt;stroke-linejoin:miter;stroke-opacity:1"/>
<path class="bond-3 atom-3 atom-4" d="M 28.3,107.3 L 28.3,78.0" style="fill:none;fill-rule:evenodd;stroke:#000000;stroke-width:2.0px;stroke-linecap:butt;stroke-linejoin:miter;stroke-opacity:1"/>
<path class="bond-4 atom-4 atom-5" d="M 28.3,78.0 L 53.7,63.4" style="fill:none;fill-rule:evenodd;stroke:#000000;stroke-width:2.0px;stroke-linecap:butt;stroke-linejoin:miter;stroke-opacity:1"/>
<path class="bond-4 atom-4 atom-5" d="M 32.7,80.6 L 53.7,68.5" style="fill:none;fill-rule:evenodd;stroke:#000000;stroke-width:2.0px;stroke-linecap:butt;stroke-linejoin:miter;stroke-opacity:1"/>
<path class="bond-5 atom-5 atom-6" d="M 53.7,63.4 L 79.1,78.0" style="fill:none;fill-rule:evenodd;stroke:#000000;stroke-width:2.0px;stroke-linecap:butt;stroke-linejoin:miter;stroke-opacity:1"/>
<path class="bond-6 atom-6 atom-7" d="M 79.1,78.0 L 79.1,107.3" style="fill:none;fill-rule:evenodd;stroke:#000000;stroke-width:2.0px;stroke-linecap:butt;stroke-linejoin:miter;stroke-opacity:1"/>
<path class="bond-6 atom-6 atom-7" d="M 74.7,80.6 L 74.7,104.8" style="fill:none;fill-rule:evenodd;stroke:#000000;stroke-width:2.0px;stroke-linecap:butt;stroke-linejoin:miter;stroke-opacity:1"/>
<path class="bond-7 atom-7 atom-8" d="M 79.1,107.3 L 89.7,113.5" style="fill:none;fill-rule:evenodd;stroke:#000000;stroke-width:2.0px;stroke-linecap:butt;stroke-linejoin:miter;stroke-opacity:1"/>
<path class="bond-7 atom-7 atom-8" d="M 89.7,113.5 L 100.3,119.6" style="fill:none;fill-rule:evenodd;stroke:#0000FF;stroke-width:2.0px;stroke-linecap:butt;stroke-linejoin:miter;stroke-opacity:1"/>
<path class="bond-8 atom-8 atom-9" d="M 108.5,119.6 L 119.2,113.5" style="fill:none;fill-rule:evenodd;stroke:#0000FF;stroke-width:2.0px;stroke-linecap:butt;stroke-linejoin:miter;stroke-opacity:1"/>
<path class="bond-8 atom-8 atom-9" d="M 119.2,113.5 L 129.8,107.3" style="fill:none;fill-rule:evenodd;stroke:#000000;stroke-width:2.0px;stroke-linecap:butt;stroke-linejoin:miter;stroke-opacity:1"/>
<path class="bond-8 atom-8 atom-9" d="M 106.3,115.8 L 115.9,110.3" style="fill:none;fill-rule:evenodd;stroke:#0000FF;stroke-width:2.0px;stroke-linecap:butt;stroke-linejoin:miter;stroke-opacity:1"/>
<path class="bond-8 atom-8 atom-9" d="M 115.9,110.3 L 125.4,104.8" style="fill:none;fill-rule:evenodd;stroke:#000000;stroke-width:2.0px;stroke-linecap:butt;stroke-linejoin:miter;stroke-opacity:1"/>
<path class="bond-9 atom-9 atom-10" d="M 129.8,107.3 L 140.4,113.5" style="fill:none;fill-rule:evenodd;stroke:#000000;stroke-width:2.0px;stroke-linecap:butt;stroke-linejoin:miter;stroke-opacity:1"/>
<path class="bond-9 atom-9 atom-10" d="M 140.4,113.5 L 151.0,119.6" style="fill:none;fill-rule:evenodd;stroke:#0000FF;stroke-width:2.0px;stroke-linecap:butt;stroke-linejoin:miter;stroke-opacity:1"/>
<path class="bond-10 atom-9 atom-11" d="M 129.8,107.3 L 129.8,95.2" style="fill:none;fill-rule:evenodd;stroke:#000000;stroke-width:2.0px;stroke-linecap:butt;stroke-linejoin:miter;stroke-opacity:1"/>
<path class="bond-10 atom-9 atom-11" d="M 129.8,95.2 L 129.8,83.1" style="fill:none;fill-rule:evenodd;stroke:#0000FF;stroke-width:2.0px;stroke-linecap:butt;stroke-linejoin:miter;stroke-opacity:1"/>
<path class="bond-11 atom-11 atom-12" d="M 125.7,75.7 L 115.0,69.5" style="fill:none;fill-rule:evenodd;stroke:#0000FF;stroke-width:2.0px;stroke-linecap:butt;stroke-linejoin:miter;stroke-opacity:1"/>
<path class="bond-11 atom-11 atom-12" d="M 115.0,69.5 L 104.4,63.4" style="fill:none;fill-rule:evenodd;stroke:#000000;stroke-width:2.0px;stroke-linecap:butt;stroke-linejoin:miter;stroke-opacity:1"/>
<path class="bond-12 atom-12 atom-13" d="M 104.4,63.4 L 104.4,34.1" style="fill:none;fill-rule:evenodd;stroke:#000000;stroke-width:2.0px;stroke-linecap:butt;stroke-linejoin:miter;stroke-opacity:1"/>
<path class="bond-13 atom-7 atom-2" d="M 79.1,107.3 L 53.7,122.0" style="fill:none;fill-rule:evenodd;stroke:#000000;stroke-width:2.0px;stroke-linecap:butt;stroke-linejoin:miter;stroke-opacity:1"/>
<path class="bond-14 atom-12 atom-6" d="M 104.4,63.4 L 79.1,78.0" style="fill:none;fill-rule:evenodd;stroke:#000000;stroke-width:2.0px;stroke-linecap:butt;stroke-linejoin:miter;stroke-opacity:1"/>
<path d="M 29.6,108.1 L 28.3,107.3 L 28.3,105.9" style="fill:none;stroke:#000000;stroke-width:2.0px;stroke-linecap:butt;stroke-linejoin:miter;stroke-opacity:1;"/>
<path d="M 28.3,79.5 L 28.3,78.0 L 29.6,77.3" style="fill:none;stroke:#000000;stroke-width:2.0px;stroke-linecap:butt;stroke-linejoin:miter;stroke-opacity:1;"/>
<path d="M 52.4,64.1 L 53.7,63.4 L 55.0,64.1" style="fill:none;stroke:#000000;stroke-width:2.0px;stroke-linecap:butt;stroke-linejoin:miter;stroke-opacity:1;"/>
<path class="atom-1" d="M 49.9 151.3 Q 49.9 149.3, 50.9 148.2 Q 51.9 147.1, 53.7 147.1 Q 55.5 147.1, 56.5 148.2 Q 57.5 149.3, 57.5 151.3 Q 57.5 153.3, 56.5 154.4 Q 55.5 155.6, 53.7 155.6 Q 51.9 155.6, 50.9 154.4 Q 49.9 153.3, 49.9 151.3 M 53.7 154.6 Q 55.0 154.6, 55.6 153.8 Q 56.3 152.9, 56.3 151.3 Q 56.3 149.6, 55.6 148.8 Q 55.0 148.0, 53.7 148.0 Q 52.4 148.0, 51.7 148.8 Q 51.1 149.6, 51.1 151.3 Q 51.1 152.9, 51.7 153.8 Q 52.4 154.6, 53.7 154.6 " fill="#FF0000"/>
<path class="atom-8" d="M 102.6 117.8 L 105.3 122.2 Q 105.6 122.6, 106.0 123.4 Q 106.4 124.2, 106.5 124.3 L 106.5 117.8 L 107.6 117.8 L 107.6 126.1 L 106.4 126.1 L 103.5 121.3 Q 103.2 120.7, 102.8 120.1 Q 102.5 119.5, 102.4 119.3 L 102.4 126.1 L 101.3 126.1 L 101.3 117.8 L 102.6 117.8 " fill="#0000FF"/>
<path class="atom-10" d="M 153.3 117.8 L 156.0 122.2 Q 156.3 122.6, 156.7 123.4 Q 157.2 124.2, 157.2 124.3 L 157.2 117.8 L 158.3 117.8 L 158.3 126.1 L 157.2 126.1 L 154.2 121.3 Q 153.9 120.7, 153.5 120.1 Q 153.2 119.5, 153.1 119.3 L 153.1 126.1 L 152.0 126.1 L 152.0 117.8 L 153.3 117.8 " fill="#0000FF"/>
<path class="atom-10" d="M 159.9 117.8 L 161.0 117.8 L 161.0 121.3 L 165.2 121.3 L 165.2 117.8 L 166.4 117.8 L 166.4 126.1 L 165.2 126.1 L 165.2 122.3 L 161.0 122.3 L 161.0 126.1 L 159.9 126.1 L 159.9 117.8 " fill="#0000FF"/>
<path class="atom-10" d="M 168.0 125.8 Q 168.2 125.3, 168.7 125.0 Q 169.2 124.7, 169.8 124.7 Q 170.6 124.7, 171.1 125.2 Q 171.6 125.6, 171.6 126.4 Q 171.6 127.2, 171.0 128.0 Q 170.4 128.7, 169.1 129.6 L 171.7 129.6 L 171.7 130.3 L 168.0 130.3 L 168.0 129.7 Q 169.0 129.0, 169.6 128.5 Q 170.2 127.9, 170.5 127.4 Q 170.8 127.0, 170.8 126.5 Q 170.8 125.9, 170.5 125.6 Q 170.3 125.3, 169.8 125.3 Q 169.4 125.3, 169.1 125.5 Q 168.8 125.7, 168.6 126.1 L 168.0 125.8 " fill="#0000FF"/>
<path class="atom-11" d="M 128.0 73.9 L 130.7 78.3 Q 130.9 78.7, 131.4 79.5 Q 131.8 80.3, 131.8 80.3 L 131.8 73.9 L 132.9 73.9 L 132.9 82.2 L 131.8 82.2 L 128.9 77.4 Q 128.5 76.8, 128.2 76.2 Q 127.8 75.5, 127.7 75.3 L 127.7 82.2 L 126.6 82.2 L 126.6 73.9 L 128.0 73.9 " fill="#0000FF"/>
<path class="atom-11" d="M 134.5 73.9 L 135.7 73.9 L 135.7 77.4 L 139.9 77.4 L 139.9 73.9 L 141.0 73.9 L 141.0 82.2 L 139.9 82.2 L 139.9 78.4 L 135.7 78.4 L 135.7 82.2 L 134.5 82.2 L 134.5 73.9 " fill="#0000FF"/>
<path class="bond-0 atom-0 atom-1" d="M 241.0,180.5 L 241.0,151.2" style="fill:none;fill-rule:evenodd;stroke:#000000;stroke-width:2.0px;stroke-linecap:butt;stroke-linejoin:miter;stroke-opacity:1"/>
<path class="bond-1 atom-1 atom-2" d="M 241.0,151.2 L 215.7,136.6" style="fill:none;fill-rule:evenodd;stroke:#000000;stroke-width:2.0px;stroke-linecap:butt;stroke-linejoin:miter;stroke-opacity:1"/>
<path class="bond-2 atom-1 atom-3" d="M 241.0,151.2 L 251.3,145.3" style="fill:none;fill-rule:evenodd;stroke:#000000;stroke-width:2.0px;stroke-linecap:butt;stroke-linejoin:miter;stroke-opacity:1"/>
<path class="bond-2 atom-1 atom-3" d="M 251.3,145.3 L 261.6,139.4" style="fill:none;fill-rule:evenodd;stroke:#FF0000;stroke-width:2.0px;stroke-linecap:butt;stroke-linejoin:miter;stroke-opacity:1"/>
<path class="bond-3 atom-3 atom-4" d="M 266.4,131.4 L 266.4,119.4" style="fill:none;fill-rule:evenodd;stroke:#FF0000;stroke-width:2.0px;stroke-linecap:butt;stroke-linejoin:miter;stroke-opacity:1"/>
<path class="bond-3 atom-3 atom-4" d="M 266.4,119.4 L 266.4,107.3" style="fill:none;fill-rule:evenodd;stroke:#000000;stroke-width:2.0px;stroke-linecap:butt;stroke-linejoin:miter;stroke-opacity:1"/>
<path class="bond-4 atom-4 atom-5" d="M 266.4,107.3 L 241.0,92.7" style="fill:none;fill-rule:evenodd;stroke:#000000;stroke-width:2.0px;stroke-linecap:butt;stroke-linejoin:miter;stroke-opacity:1"/>
<path class="bond-4 atom-4 atom-5" d="M 266.4,102.2 L 245.4,90.1" style="fill:none;fill-rule:evenodd;stroke:#000000;stroke-width:2.0px;stroke-linecap:butt;stroke-linejoin:miter;stroke-opacity:1"/>
<path class="bond-5 atom-5 atom-6" d="M 241.0,92.7 L 241.0,63.4" style="fill:none;fill-rule:evenodd;stroke:#000000;stroke-width:2.0px;stroke-linecap:butt;stroke-linejoin:miter;stroke-opacity:1"/>
<path class="bond-6 atom-6 atom-7" d="M 241.0,63.4 L 266.4,48.8" style="fill:none;fill-rule:evenodd;stroke:#000000;stroke-width:2.0px;stroke-linecap:butt;stroke-linejoin:miter;stroke-opacity:1"/>
<path class="bond-6 atom-6 atom-7" d="M 245.4,65.9 L 266.4,53.8" style="fill:none;fill-rule:evenodd;stroke:#000000;stroke-width:2.0px;stroke-linecap:butt;stroke-linejoin:miter;stroke-opacity:1"/>
<path class="bond-7 atom-7 atom-8" d="M 266.4,48.8 L 291.7,63.4" style="fill:none;fill-rule:evenodd;stroke:#000000;stroke-width:2.0px;stroke-linecap:butt;stroke-linejoin:miter;stroke-opacity:1"/>
<path class="bond-8 atom-8 atom-9" d="M 291.7,63.4 L 291.7,92.7" style="fill:none;fill-rule:evenodd;stroke:#000000;stroke-width:2.0px;stroke-linecap:butt;stroke-linejoin:miter;stroke-opacity:1"/>
<path class="bond-8 atom-8 atom-9" d="M 287.3,65.9 L 287.3,90.1" style="fill:none;fill-rule:evenodd;stroke:#000000;stroke-width:2.0px;stroke-linecap:butt;stroke-linejoin:miter;stroke-opacity:1"/>
<path class="bond-9 atom-9 atom-10" d="M 291.7,92.7 L 302.4,98.8" style="fill:none;fill-rule:evenodd;stroke:#000000;stroke-width:2.0px;stroke-linecap:butt;stroke-linejoin:miter;stroke-opacity:1"/>
<path class="bond-9 atom-9 atom-10" d="M 302.4,98.8 L 313.0,104.9" style="fill:none;fill-rule:evenodd;stroke:#0000FF;stroke-width:2.0px;stroke-linecap:butt;stroke-linejoin:miter;stroke-opacity:1"/>
<path class="bond-10 atom-10 atom-11" d="M 321.2,104.9 L 331.8,98.8" style="fill:none;fill-rule:evenodd;stroke:#0000FF;stroke-width:2.0px;stroke-linecap:butt;stroke-linejoin:miter;stroke-opacity:1"/>
<path class="bond-10 atom-10 atom-11" d="M 331.8,98.8 L 342.5,92.7" style="fill:none;fill-rule:evenodd;stroke:#000000;stroke-width:2.0px;stroke-linecap:butt;stroke-linejoin:miter;stroke-opacity:1"/>
<path class="bond-10 atom-10 atom-11" d="M 319.0,101.1 L 328.5,95.6" style="fill:none;fill-rule:evenodd;stroke:#0000FF;stroke-width:2.0px;stroke-linecap:butt;stroke-linejoin:miter;stroke-opacity:1"/>
<path class="bond-10 atom-10 atom-11" d="M 328.5,95.6 L 338.1,90.1" style="fill:none;fill-rule:evenodd;stroke:#000000;stroke-width:2.0px;stroke-linecap:butt;stroke-linejoin:miter;stroke-opacity:1"/>
<path class="bond-11 atom-11 atom-12" d="M 342.5,92.7 L 353.1,98.8" style="fill:none;fill-rule:evenodd;stroke:#000000;stroke-width:2.0px;stroke-linecap:butt;stroke-linejoin:miter;stroke-opacity:1"/>
<path class="bond-11 atom-11 atom-12" d="M 353.1,98.8 L 363.7,104.9" style="fill:none;fill-rule:evenodd;stroke:#0000FF;stroke-width:2.0px;stroke-linecap:butt;stroke-linejoin:miter;stroke-opacity:1"/>
<path class="bond-12 atom-11 atom-13" d="M 342.5,92.7 L 342.5,80.6" style="fill:none;fill-rule:evenodd;stroke:#000000;stroke-width:2.0px;stroke-linecap:butt;stroke-linejoin:miter;stroke-opacity:1"/>
<path class="bond-12 atom-11 atom-13" d="M 342.5,80.6 L 342.5,68.5" style="fill:none;fill-rule:evenodd;stroke:#0000FF;stroke-width:2.0px;stroke-linecap:butt;stroke-linejoin:miter;stroke-opacity:1"/>
<path class="bond-13 atom-13 atom-14" d="M 338.4,61.0 L 327.7,54.9" style="fill:none;fill-rule:evenodd;stroke:#0000FF;stroke-width:2.0px;stroke-linecap:butt;stroke-linejoin:miter;stroke-opacity:1"/>
<path class="bond-13 atom-13 atom-14" d="M 327.7,54.9 L 317.1,48.8" style="fill:none;fill-rule:evenodd;stroke:#000000;stroke-width:2.0px;stroke-linecap:butt;stroke-linejoin:miter;stroke-opacity:1"/>
<path class="bond-14 atom-14 atom-15" d="M 317.1,48.8 L 317.1,19.5" style="fill:none;fill-rule:evenodd;stroke:#000000;stroke-width:2.0px;stroke-linecap:butt;stroke-linejoin:miter;stroke-opacity:1"/>
<path class="bond-15 atom-9 atom-4" d="M 291.7,92.7 L 266.4,107.3" style="fill:none;fill-rule:evenodd;stroke:#000000;stroke-width:2.0px;stroke-linecap:butt;stroke-linejoin:miter;stroke-opacity:1"/>
<path class="bond-16 atom-14 atom-8" d="M 317.1,48.8 L 291.7,63.4" style="fill:none;fill-rule:evenodd;stroke:#000000;stroke-width:2.0px;stroke-linecap:butt;stroke-linejoin:miter;stroke-opacity:1"/>
<path d="M 242.3,93.4 L 241.0,92.7 L 241.0,91.2" style="fill:none;stroke:#000000;stroke-width:2.0px;stroke-linecap:butt;stroke-linejoin:miter;stroke-opacity:1;"/>
<path d="M 241.0,64.9 L 241.0,63.4 L 242.3,62.7" style="fill:none;stroke:#000000;stroke-width:2.0px;stroke-linecap:butt;stroke-linejoin:miter;stroke-opacity:1;"/>
<path d="M 265.1,49.5 L 266.4,48.8 L 267.6,49.5" style="fill:none;stroke:#000000;stroke-width:2.0px;stroke-linecap:butt;stroke-linejoin:miter;stroke-opacity:1;"/>
<path class="atom-3" d="M 262.6 136.6 Q 262.6 134.6, 263.6 133.5 Q 264.5 132.4, 266.4 132.4 Q 268.2 132.4, 269.2 133.5 Q 270.2 134.6, 270.2 136.6 Q 270.2 138.6, 269.2 139.8 Q 268.2 140.9, 266.4 140.9 Q 264.6 140.9, 263.6 139.8 Q 262.6 138.7, 262.6 136.6 M 266.4 140.0 Q 267.6 140.0, 268.3 139.1 Q 269.0 138.3, 269.0 136.6 Q 269.0 135.0, 268.3 134.2 Q 267.6 133.4, 266.4 133.4 Q 265.1 133.4, 264.4 134.2 Q 263.7 135.0, 263.7 136.6 Q 263.7 138.3, 264.4 139.1 Q 265.1 140.0, 266.4 140.0 " fill="#FF0000"/>
<path class="atom-10" d="M 315.3 103.2 L 318.0 107.6 Q 318.3 108.0, 318.7 108.8 Q 319.1 109.6, 319.1 109.6 L 319.1 103.2 L 320.2 103.2 L 320.2 111.5 L 319.1 111.5 L 316.2 106.7 Q 315.9 106.1, 315.5 105.5 Q 315.1 104.8, 315.0 104.6 L 315.0 111.5 L 314.0 111.5 L 314.0 103.2 L 315.3 103.2 " fill="#0000FF"/>
<path class="atom-12" d="M 366.0 103.2 L 368.7 107.6 Q 369.0 108.0, 369.4 108.8 Q 369.8 109.6, 369.9 109.6 L 369.9 103.2 L 371.0 103.2 L 371.0 111.5 L 369.8 111.5 L 366.9 106.7 Q 366.6 106.1, 366.2 105.5 Q 365.9 104.8, 365.8 104.6 L 365.8 111.5 L 364.7 111.5 L 364.7 103.2 L 366.0 103.2 " fill="#0000FF"/>
<path class="atom-12" d="M 372.6 103.2 L 373.7 103.2 L 373.7 106.7 L 377.9 106.7 L 377.9 103.2 L 379.0 103.2 L 379.0 111.5 L 377.9 111.5 L 377.9 107.6 L 373.7 107.6 L 373.7 111.5 L 372.6 111.5 L 372.6 103.2 " fill="#0000FF"/>
<path class="atom-12" d="M 380.7 111.2 Q 380.9 110.7, 381.4 110.4 Q 381.8 110.1, 382.5 110.1 Q 383.3 110.1, 383.8 110.5 Q 384.3 111.0, 384.3 111.8 Q 384.3 112.6, 383.6 113.3 Q 383.1 114.1, 381.8 115.0 L 384.3 115.0 L 384.3 115.6 L 380.7 115.6 L 380.7 115.1 Q 381.7 114.4, 382.3 113.8 Q 382.9 113.3, 383.2 112.8 Q 383.5 112.3, 383.5 111.8 Q 383.5 111.3, 383.2 111.0 Q 383.0 110.7, 382.5 110.7 Q 382.1 110.7, 381.8 110.9 Q 381.5 111.1, 381.3 111.4 L 380.7 111.2 " fill="#0000FF"/>
<path class="atom-13" d="M 340.6 59.2 L 343.4 63.6 Q 343.6 64.1, 344.1 64.9 Q 344.5 65.6, 344.5 65.7 L 344.5 59.2 L 345.6 59.2 L 345.6 67.5 L 344.5 67.5 L 341.6 62.7 Q 341.2 62.2, 340.9 61.5 Q 340.5 60.9, 340.4 60.7 L 340.4 67.5 L 339.3 67.5 L 339.3 59.2 L 340.6 59.2 " fill="#0000FF"/>
<path class="atom-13" d="M 347.2 59.2 L 348.3 59.2 L 348.3 62.8 L 352.6 62.8 L 352.6 59.2 L 353.7 59.2 L 353.7 67.5 L 352.6 67.5 L 352.6 63.7 L 348.3 63.7 L 348.3 67.5 L 347.2 67.5 L 347.2 59.2 " fill="#0000FF"/>
<path class="bond-0 atom-0 atom-1" d="M 570.5,136.6 L 570.5,124.5" style="fill:none;fill-rule:evenodd;stroke:#000000;stroke-width:2.0px;stroke-linecap:butt;stroke-linejoin:miter;stroke-opacity:1"/>
<path class="bond-0 atom-0 atom-1" d="M 570.5,124.5 L 570.5,112.4" style="fill:none;fill-rule:evenodd;stroke:#0000FF;stroke-width:2.0px;stroke-linecap:butt;stroke-linejoin:miter;stroke-opacity:1"/>
<path class="bond-1 atom-1 atom-2" d="M 566.4,104.9 L 555.7,98.8" style="fill:none;fill-rule:evenodd;stroke:#0000FF;stroke-width:2.0px;stroke-linecap:butt;stroke-linejoin:miter;stroke-opacity:1"/>
<path class="bond-1 atom-1 atom-2" d="M 555.7,98.8 L 545.1,92.7" style="fill:none;fill-rule:evenodd;stroke:#000000;stroke-width:2.0px;stroke-linecap:butt;stroke-linejoin:miter;stroke-opacity:1"/>
<path class="bond-2 atom-2 atom-3" d="M 545.1,92.7 L 534.5,98.8" style="fill:none;fill-rule:evenodd;stroke:#000000;stroke-width:2.0px;stroke-linecap:butt;stroke-linejoin:miter;stroke-opacity:1"/>
<path class="bond-2 atom-2 atom-3" d="M 534.5,98.8 L 523.9,104.9" style="fill:none;fill-rule:evenodd;stroke:#0000FF;stroke-width:2.0px;stroke-linecap:butt;stroke-linejoin:miter;stroke-opacity:1"/>
<path class="bond-2 atom-2 atom-3" d="M 540.7,90.1 L 531.2,95.6" style="fill:none;fill-rule:evenodd;stroke:#000000;stroke-width:2.0px;stroke-linecap:butt;stroke-linejoin:miter;stroke-opacity:1"/>
<path class="bond-2 atom-2 atom-3" d="M 531.2,95.6 L 521.7,101.1" style="fill:none;fill-rule:evenodd;stroke:#0000FF;stroke-width:2.0px;stroke-linecap:butt;stroke-linejoin:miter;stroke-opacity:1"/>
<path class="bond-3 atom-3 atom-4" d="M 515.6,104.9 L 505.0,98.8" style="fill:none;fill-rule:evenodd;stroke:#0000FF;stroke-width:2.0px;stroke-linecap:butt;stroke-linejoin:miter;stroke-opacity:1"/>
<path class="bond-3 atom-3 atom-4" d="M 505.0,98.8 L 494.4,92.7" style="fill:none;fill-rule:evenodd;stroke:#000000;stroke-width:2.0px;stroke-linecap:butt;stroke-linejoin:miter;stroke-opacity:1"/>
<path class="bond-4 atom-4 atom-5" d="M 494.4,92.7 L 469.0,107.3" style="fill:none;fill-rule:evenodd;stroke:#000000;stroke-width:2.0px;stroke-linecap:butt;stroke-linejoin:miter;stroke-opacity:1"/>
<path class="bond-4 atom-4 atom-5" d="M 490.0,90.1 L 469.0,102.2" style="fill:none;fill-rule:evenodd;stroke:#000000;stroke-width:2.0px;stroke-linecap:butt;stroke-linejoin:miter;stroke-opacity:1"/>
<path class="bond-5 atom-5 atom-6" d="M 469.0,107.3 L 469.0,119.4" style="fill:none;fill-rule:evenodd;stroke:#000000;stroke-width:2.0px;stroke-linecap:butt;stroke-linejoin:miter;stroke-opacity:1"/>
<path class="bond-5 atom-5 atom-6" d="M 469.0,119.4 L 469.0,131.4" style="fill:none;fill-rule:evenodd;stroke:#FF0000;stroke-width:2.0px;stroke-linecap:butt;stroke-linejoin:miter;stroke-opacity:1"/>
<path class="bond-6 atom-6 atom-7" d="M 464.2,139.4 L 453.9,145.3" style="fill:none;fill-rule:evenodd;stroke:#FF0000;stroke-width:2.0px;stroke-linecap:butt;stroke-linejoin:miter;stroke-opacity:1"/>
<path class="bond-6 atom-6 atom-7" d="M 453.9,145.3 L 443.7,151.2" style="fill:none;fill-rule:evenodd;stroke:#000000;stroke-width:2.0px;stroke-linecap:butt;stroke-linejoin:miter;stroke-opacity:1"/>
<path class="bond-7 atom-7 atom-8" d="M 443.7,151.2 L 443.7,180.5" style="fill:none;fill-rule:evenodd;stroke:#000000;stroke-width:2.0px;stroke-linecap:butt;stroke-linejoin:miter;stroke-opacity:1"/>
<path class="bond-8 atom-7 atom-9" d="M 443.7,151.2 L 418.3,136.6" style="fill:none;fill-rule:evenodd;stroke:#000000;stroke-width:2.0px;stroke-linecap:butt;stroke-linejoin:miter;stroke-opacity:1"/>
<path class="bond-9 atom-5 atom-10" d="M 469.0,107.3 L 443.7,92.7" style="fill:none;fill-rule:evenodd;stroke:#000000;stroke-width:2.0px;stroke-linecap:butt;stroke-linejoin:miter;stroke-opacity:1"/>
<path class="bond-10 atom-10 atom-11" d="M 443.7,92.7 L 443.7,63.4" style="fill:none;fill-rule:evenodd;stroke:#000000;stroke-width:2.0px;stroke-linecap:butt;stroke-linejoin:miter;stroke-opacity:1"/>
<path class="bond-10 atom-10 atom-11" d="M 448.0,90.1 L 448.0,65.9" style="fill:none;fill-rule:evenodd;stroke:#000000;stroke-width:2.0px;stroke-linecap:butt;stroke-linejoin:miter;stroke-opacity:1"/>
<path class="bond-11 atom-11 atom-12" d="M 443.7,63.4 L 469.0,48.8" style="fill:none;fill-rule:evenodd;stroke:#000000;stroke-width:2.0px;stroke-linecap:butt;stroke-linejoin:miter;stroke-opacity:1"/>
<path class="bond-12 atom-12 atom-13" d="M 469.0,48.8 L 494.4,63.4" style="fill:none;fill-rule:evenodd;stroke:#000000;stroke-width:2.0px;stroke-linecap:butt;stroke-linejoin:miter;stroke-opacity:1"/>
<path class="bond-12 atom-12 atom-13" d="M 469.0,53.8 L 490.0,65.9" style="fill:none;fill-rule:evenodd;stroke:#000000;stroke-width:2.0px;stroke-linecap:butt;stroke-linejoin:miter;stroke-opacity:1"/>
<path class="bond-13 atom-13 atom-14" d="M 494.4,63.4 L 519.7,48.8" style="fill:none;fill-rule:evenodd;stroke:#000000;stroke-width:2.0px;stroke-linecap:butt;stroke-linejoin:miter;stroke-opacity:1"/>
<path class="bond-14 atom-14 atom-15" d="M 519.7,48.8 L 519.7,19.5" style="fill:none;fill-rule:evenodd;stroke:#000000;stroke-width:2.0px;stroke-linecap:butt;stroke-linejoin:miter;stroke-opacity:1"/>
<path class="bond-15 atom-14 atom-16" d="M 519.7,48.8 L 530.4,54.9" style="fill:none;fill-rule:evenodd;stroke:#000000;stroke-width:2.0px;stroke-linecap:butt;stroke-linejoin:miter;stroke-opacity:1"/>
<path class="bond-15 atom-14 atom-16" d="M 530.4,54.9 L 541.0,61.0" style="fill:none;fill-rule:evenodd;stroke:#0000FF;stroke-width:2.0px;stroke-linecap:butt;stroke-linejoin:miter;stroke-opacity:1"/>
<path class="bond-16 atom-16 atom-2" d="M 545.1,68.5 L 545.1,80.6" style="fill:none;fill-rule:evenodd;stroke:#0000FF;stroke-width:2.0px;stroke-linecap:butt;stroke-linejoin:miter;stroke-opacity:1"/>
<path class="bond-16 atom-16 atom-2" d="M 545.1,80.6 L 545.1,92.7" style="fill:none;fill-rule:evenodd;stroke:#000000;stroke-width:2.0px;stroke-linecap:butt;stroke-linejoin:miter;stroke-opacity:1"/>
<path class="bond-17 atom-13 atom-4" d="M 494.4,63.4 L 494.4,92.7" style="fill:none;fill-rule:evenodd;stroke:#000000;stroke-width:2.0px;stroke-linecap:butt;stroke-linejoin:miter;stroke-opacity:1"/>
<path d="M 444.9,93.4 L 443.7,92.7 L 443.7,91.2" style="fill:none;stroke:#000000;stroke-width:2.0px;stroke-linecap:butt;stroke-linejoin:miter;stroke-opacity:1;"/>
<path d="M 443.7,64.9 L 443.7,63.4 L 444.9,62.7" style="fill:none;stroke:#000000;stroke-width:2.0px;stroke-linecap:butt;stroke-linejoin:miter;stroke-opacity:1;"/>
<path d="M 467.7,49.5 L 469.0,48.8 L 470.3,49.5" style="fill:none;stroke:#000000;stroke-width:2.0px;stroke-linecap:butt;stroke-linejoin:miter;stroke-opacity:1;"/>
<path class="atom-1" d="M 568.6 103.2 L 571.3 107.6 Q 571.6 108.0, 572.1 108.8 Q 572.5 109.6, 572.5 109.6 L 572.5 103.2 L 573.6 103.2 L 573.6 111.5 L 572.5 111.5 L 569.6 106.7 Q 569.2 106.1, 568.9 105.5 Q 568.5 104.8, 568.4 104.6 L 568.4 111.5 L 567.3 111.5 L 567.3 103.2 L 568.6 103.2 " fill="#0000FF"/>
<path class="atom-1" d="M 575.2 103.2 L 576.3 103.2 L 576.3 106.7 L 580.6 106.7 L 580.6 103.2 L 581.7 103.2 L 581.7 111.5 L 580.6 111.5 L 580.6 107.6 L 576.3 107.6 L 576.3 111.5 L 575.2 111.5 L 575.2 103.2 " fill="#0000FF"/>
<path class="atom-3" d="M 517.9 103.2 L 520.6 107.6 Q 520.9 108.0, 521.3 108.8 Q 521.8 109.6, 521.8 109.6 L 521.8 103.2 L 522.9 103.2 L 522.9 111.5 L 521.7 111.5 L 518.8 106.7 Q 518.5 106.1, 518.1 105.5 Q 517.8 104.8, 517.7 104.6 L 517.7 111.5 L 516.6 111.5 L 516.6 103.2 L 517.9 103.2 " fill="#0000FF"/>
<path class="atom-6" d="M 465.2 136.6 Q 465.2 134.6, 466.2 133.5 Q 467.2 132.4, 469.0 132.4 Q 470.9 132.4, 471.8 133.5 Q 472.8 134.6, 472.8 136.6 Q 472.8 138.6, 471.8 139.8 Q 470.8 140.9, 469.0 140.9 Q 467.2 140.9, 466.2 139.8 Q 465.2 138.7, 465.2 136.6 M 469.0 140.0 Q 470.3 140.0, 471.0 139.1 Q 471.7 138.3, 471.7 136.6 Q 471.7 135.0, 471.0 134.2 Q 470.3 133.4, 469.0 133.4 Q 467.7 133.4, 467.1 134.2 Q 466.4 135.0, 466.4 136.6 Q 466.4 138.3, 467.1 139.1 Q 467.7 140.0, 469.0 140.0 " fill="#FF0000"/>
<path class="atom-16" d="M 543.3 59.2 L 546.0 63.6 Q 546.3 64.1, 546.7 64.9 Q 547.1 65.6, 547.1 65.7 L 547.1 59.2 L 548.2 59.2 L 548.2 67.5 L 547.1 67.5 L 544.2 62.7 Q 543.9 62.2, 543.5 61.5 Q 543.1 60.9, 543.0 60.7 L 543.0 67.5 L 542.0 67.5 L 542.0 59.2 L 543.3 59.2 " fill="#0000FF"/>
<path class="atom-16" d="M 549.9 59.2 L 551.0 59.2 L 551.0 62.8 L 555.2 62.8 L 555.2 59.2 L 556.3 59.2 L 556.3 67.5 L 555.2 67.5 L 555.2 63.7 L 551.0 63.7 L 551.0 67.5 L 549.9 67.5 L 549.9 59.2 " fill="#0000FF"/>
<path class="bond-0 atom-0 atom-1" d="M 10.0,349.2 L 20.3,343.2" style="fill:none;fill-rule:evenodd;stroke:#000000;stroke-width:2.0px;stroke-linecap:butt;stroke-linejoin:miter;stroke-opacity:1"/>
<path class="bond-0 atom-0 atom-1" d="M 20.3,343.2 L 30.6,337.3" style="fill:none;fill-rule:evenodd;stroke:#FF0000;stroke-width:2.0px;stroke-linecap:butt;stroke-linejoin:miter;stroke-opacity:1"/>
<path class="bond-1 atom-1 atom-2" d="M 35.4,329.4 L 35.4,317.3" style="fill:none;fill-rule:evenodd;stroke:#FF0000;stroke-width:2.0px;stroke-linecap:butt;stroke-linejoin:miter;stroke-opacity:1"/>
<path class="bond-1 atom-1 atom-2" d="M 35.4,317.3 L 35.4,305.2" style="fill:none;fill-rule:evenodd;stroke:#000000;stroke-width:2.0px;stroke-linecap:butt;stroke-linejoin:miter;stroke-opacity:1"/>
<path class="bond-2 atom-2 atom-3" d="M 35.4,305.2 L 10.0,290.6" style="fill:none;fill-rule:evenodd;stroke:#000000;stroke-width:2.0px;stroke-linecap:butt;stroke-linejoin:miter;stroke-opacity:1"/>
<path class="bond-2 atom-2 atom-3" d="M 35.4,300.2 L 14.4,288.1" style="fill:none;fill-rule:evenodd;stroke:#000000;stroke-width:2.0px;stroke-linecap:butt;stroke-linejoin:miter;stroke-opacity:1"/>
<path class="bond-3 atom-3 atom-4" d="M 10.0,290.6 L 10.0,261.3" style="fill:none;fill-rule:evenodd;stroke:#000000;stroke-width:2.0px;stroke-linecap:butt;stroke-linejoin:miter;stroke-opacity:1"/>
<path class="bond-4 atom-4 atom-5" d="M 10.0,261.3 L 35.4,246.7" style="fill:none;fill-rule:evenodd;stroke:#000000;stroke-width:2.0px;stroke-linecap:butt;stroke-linejoin:miter;stroke-opacity:1"/>
<path class="bond-4 atom-4 atom-5" d="M 14.4,263.9 L 35.4,251.7" style="fill:none;fill-rule:evenodd;stroke:#000000;stroke-width:2.0px;stroke-linecap:butt;stroke-linejoin:miter;stroke-opacity:1"/>
<path class="bond-5 atom-5 atom-6" d="M 35.4,246.7 L 60.7,261.3" style="fill:none;fill-rule:evenodd;stroke:#000000;stroke-width:2.0px;stroke-linecap:butt;stroke-linejoin:miter;stroke-opacity:1"/>
<path class="bond-6 atom-6 atom-7" d="M 60.7,261.3 L 60.7,290.6" style="fill:none;fill-rule:evenodd;stroke:#000000;stroke-width:2.0px;stroke-linecap:butt;stroke-linejoin:miter;stroke-opacity:1"/>
<path class="bond-6 atom-6 atom-7" d="M 56.3,263.9 L 56.3,288.1" style="fill:none;fill-rule:evenodd;stroke:#000000;stroke-width:2.0px;stroke-linecap:butt;stroke-linejoin:miter;stroke-opacity:1"/>
<path class="bond-7 atom-7 atom-8" d="M 60.7,290.6 L 71.3,296.7" style="fill:none;fill-rule:evenodd;stroke:#000000;stroke-width:2.0px;stroke-linecap:butt;stroke-linejoin:miter;stroke-opacity:1"/>
<path class="bond-7 atom-7 atom-8" d="M 71.3,296.7 L 82.0,302.9" style="fill:none;fill-rule:evenodd;stroke:#0000FF;stroke-width:2.0px;stroke-linecap:butt;stroke-linejoin:miter;stroke-opacity:1"/>
<path class="bond-8 atom-8 atom-9" d="M 90.2,302.9 L 100.8,296.7" style="fill:none;fill-rule:evenodd;stroke:#0000FF;stroke-width:2.0px;stroke-linecap:butt;stroke-linejoin:miter;stroke-opacity:1"/>
<path class="bond-8 atom-8 atom-9" d="M 100.8,296.7 L 111.4,290.6" style="fill:none;fill-rule:evenodd;stroke:#000000;stroke-width:2.0px;stroke-linecap:butt;stroke-linejoin:miter;stroke-opacity:1"/>
<path class="bond-8 atom-8 atom-9" d="M 88.0,299.1 L 97.5,293.6" style="fill:none;fill-rule:evenodd;stroke:#0000FF;stroke-width:2.0px;stroke-linecap:butt;stroke-linejoin:miter;stroke-opacity:1"/>
<path class="bond-8 atom-8 atom-9" d="M 97.5,293.6 L 107.1,288.1" style="fill:none;fill-rule:evenodd;stroke:#000000;stroke-width:2.0px;stroke-linecap:butt;stroke-linejoin:miter;stroke-opacity:1"/>
<path class="bond-9 atom-9 atom-10" d="M 111.4,290.6 L 122.1,296.7" style="fill:none;fill-rule:evenodd;stroke:#000000;stroke-width:2.0px;stroke-linecap:butt;stroke-linejoin:miter;stroke-opacity:1"/>
<path class="bond-9 atom-9 atom-10" d="M 122.1,296.7 L 132.7,302.9" style="fill:none;fill-rule:evenodd;stroke:#0000FF;stroke-width:2.0px;stroke-linecap:butt;stroke-linejoin:miter;stroke-opacity:1"/>
<path class="bond-10 atom-10 atom-11" d="M 136.8,310.4 L 136.8,322.4" style="fill:none;fill-rule:evenodd;stroke:#0000FF;stroke-width:2.0px;stroke-linecap:butt;stroke-linejoin:miter;stroke-opacity:1"/>
<path class="bond-10 atom-10 atom-11" d="M 136.8,322.4 L 136.8,334.5" style="fill:none;fill-rule:evenodd;stroke:#000000;stroke-width:2.0px;stroke-linecap:butt;stroke-linejoin:miter;stroke-opacity:1"/>
<path class="bond-11 atom-11 atom-12" d="M 136.8,334.5 L 162.2,349.2" style="fill:none;fill-rule:evenodd;stroke:#000000;stroke-width:2.0px;stroke-linecap:butt;stroke-linejoin:miter;stroke-opacity:1"/>
<path class="bond-12 atom-12 atom-13" d="M 162.2,349.2 L 162.2,361.3" style="fill:none;fill-rule:evenodd;stroke:#000000;stroke-width:2.0px;stroke-linecap:butt;stroke-linejoin:miter;stroke-opacity:1"/>
<path class="bond-12 atom-12 atom-13" d="M 162.2,361.3 L 162.2,373.3" style="fill:none;fill-rule:evenodd;stroke:#33CCCC;stroke-width:2.0px;stroke-linecap:butt;stroke-linejoin:miter;stroke-opacity:1"/>
<path class="bond-13 atom-12 atom-14" d="M 162.2,349.2 L 173.1,342.8" style="fill:none;fill-rule:evenodd;stroke:#000000;stroke-width:2.0px;stroke-linecap:butt;stroke-linejoin:miter;stroke-opacity:1"/>
<path class="bond-13 atom-12 atom-14" d="M 173.1,342.8 L 184.1,336.5" style="fill:none;fill-rule:evenodd;stroke:#33CCCC;stroke-width:2.0px;stroke-linecap:butt;stroke-linejoin:miter;stroke-opacity:1"/>
<path class="bond-14 atom-9 atom-15" d="M 111.4,290.6 L 111.4,278.5" style="fill:none;fill-rule:evenodd;stroke:#000000;stroke-width:2.0px;stroke-linecap:butt;stroke-linejoin:miter;stroke-opacity:1"/>
<path class="bond-14 atom-9 atom-15" d="M 111.4,278.5 L 111.4,266.4" style="fill:none;fill-rule:evenodd;stroke:#0000FF;stroke-width:2.0px;stroke-linecap:butt;stroke-linejoin:miter;stroke-opacity:1"/>
<path class="bond-15 atom-15 atom-16" d="M 107.3,258.9 L 96.7,252.8" style="fill:none;fill-rule:evenodd;stroke:#0000FF;stroke-width:2.0px;stroke-linecap:butt;stroke-linejoin:miter;stroke-opacity:1"/>
<path class="bond-15 atom-15 atom-16" d="M 96.7,252.8 L 86.1,246.7" style="fill:none;fill-rule:evenodd;stroke:#000000;stroke-width:2.0px;stroke-linecap:butt;stroke-linejoin:miter;stroke-opacity:1"/>
<path class="bond-16 atom-16 atom-17" d="M 86.1,246.7 L 86.1,217.4" style="fill:none;fill-rule:evenodd;stroke:#000000;stroke-width:2.0px;stroke-linecap:butt;stroke-linejoin:miter;stroke-opacity:1"/>
<path class="bond-17 atom-7 atom-2" d="M 60.7,290.6 L 35.4,305.2" style="fill:none;fill-rule:evenodd;stroke:#000000;stroke-width:2.0px;stroke-linecap:butt;stroke-linejoin:miter;stroke-opacity:1"/>
<path class="bond-18 atom-16 atom-6" d="M 86.1,246.7 L 60.7,261.3" style="fill:none;fill-rule:evenodd;stroke:#000000;stroke-width:2.0px;stroke-linecap:butt;stroke-linejoin:miter;stroke-opacity:1"/>
<path d="M 11.3,291.3 L 10.0,290.6 L 10.0,289.1" style="fill:none;stroke:#000000;stroke-width:2.0px;stroke-linecap:butt;stroke-linejoin:miter;stroke-opacity:1;"/>
<path d="M 10.0,262.8 L 10.0,261.3 L 11.3,260.6" style="fill:none;stroke:#000000;stroke-width:2.0px;stroke-linecap:butt;stroke-linejoin:miter;stroke-opacity:1;"/>
<path d="M 34.1,247.4 L 35.4,246.7 L 36.6,247.4" style="fill:none;stroke:#000000;stroke-width:2.0px;stroke-linecap:butt;stroke-linejoin:miter;stroke-opacity:1;"/>
<path d="M 136.8,333.9 L 136.8,334.5 L 138.1,335.3" style="fill:none;stroke:#000000;stroke-width:2.0px;stroke-linecap:butt;stroke-linejoin:miter;stroke-opacity:1;"/>
<path class="atom-1" d="M 31.6 334.6 Q 31.6 332.6, 32.5 331.5 Q 33.5 330.3, 35.4 330.3 Q 37.2 330.3, 38.2 331.5 Q 39.2 332.6, 39.2 334.6 Q 39.2 336.6, 38.2 337.7 Q 37.2 338.9, 35.4 338.9 Q 33.5 338.9, 32.5 337.7 Q 31.6 336.6, 31.6 334.6 M 35.4 337.9 Q 36.6 337.9, 37.3 337.1 Q 38.0 336.2, 38.0 334.6 Q 38.0 332.9, 37.3 332.1 Q 36.6 331.3, 35.4 331.3 Q 34.1 331.3, 33.4 332.1 Q 32.7 332.9, 32.7 334.6 Q 32.7 336.2, 33.4 337.1 Q 34.1 337.9, 35.4 337.9 " fill="#FF0000"/>
<path class="atom-8" d="M 84.3 301.1 L 87.0 305.5 Q 87.2 305.9, 87.7 306.7 Q 88.1 307.5, 88.1 307.5 L 88.1 301.1 L 89.2 301.1 L 89.2 309.4 L 88.1 309.4 L 85.2 304.6 Q 84.8 304.0, 84.5 303.4 Q 84.1 302.7, 84.0 302.5 L 84.0 309.4 L 82.9 309.4 L 82.9 301.1 L 84.3 301.1 " fill="#0000FF"/>
<path class="atom-10" d="M 135.0 301.1 L 137.7 305.5 Q 138.0 305.9, 138.4 306.7 Q 138.8 307.5, 138.9 307.5 L 138.9 301.1 L 140.0 301.1 L 140.0 309.4 L 138.8 309.4 L 135.9 304.6 Q 135.6 304.0, 135.2 303.4 Q 134.8 302.7, 134.7 302.5 L 134.7 309.4 L 133.7 309.4 L 133.7 301.1 L 135.0 301.1 " fill="#0000FF"/>
<path class="atom-10" d="M 141.6 301.1 L 142.7 301.1 L 142.7 304.6 L 146.9 304.6 L 146.9 301.1 L 148.1 301.1 L 148.1 309.4 L 146.9 309.4 L 146.9 305.6 L 142.7 305.6 L 142.7 309.4 L 141.6 309.4 L 141.6 301.1 " fill="#0000FF"/>
<path class="atom-13" d="M 159.7 374.3 L 164.6 374.3 L 164.6 375.3 L 160.8 375.3 L 160.8 377.8 L 164.2 377.8 L 164.2 378.7 L 160.8 378.7 L 160.8 382.6 L 159.7 382.6 L 159.7 374.3 " fill="#33CCCC"/>
<path class="atom-14" d="M 185.1 330.4 L 190.0 330.4 L 190.0 331.3 L 186.2 331.3 L 186.2 333.9 L 189.6 333.9 L 189.6 334.8 L 186.2 334.8 L 186.2 338.7 L 185.1 338.7 L 185.1 330.4 " fill="#33CCCC"/>
<path class="atom-15" d="M 109.6 257.2 L 112.3 261.6 Q 112.6 262.0, 113.0 262.8 Q 113.5 263.6, 113.5 263.6 L 113.5 257.2 L 114.6 257.2 L 114.6 265.5 L 113.5 265.5 L 110.5 260.7 Q 110.2 260.1, 109.8 259.5 Q 109.5 258.8, 109.4 258.6 L 109.4 265.5 L 108.3 265.5 L 108.3 257.2 L 109.6 257.2 " fill="#0000FF"/>
<path class="atom-15" d="M 116.2 257.2 L 117.3 257.2 L 117.3 260.7 L 121.6 260.7 L 121.6 257.2 L 122.7 257.2 L 122.7 265.5 L 121.6 265.5 L 121.6 261.6 L 117.3 261.6 L 117.3 265.5 L 116.2 265.5 L 116.2 257.2 " fill="#0000FF"/>
</svg>