<svg xmlns="http://www.w3.org/2000/svg" xmlns:rdkit="http://www.rdkit.org/xml" xmlns:xlink="http://www.w3.org/1999/xlink" version="1.1" baseProfile="full" xml:space="preserve" width="600px" height="400px" viewBox="0 0 600 400">
<!-- END OF HEADER -->
<rect style="opacity:1.0;fill:#FFFFFF;stroke:none" width="600.0" height="400.0" x="0.0" y="0.0"> </rect>
<path class="bond-0 atom-0 atom-1" d="M 10.0,82.0 L 19.1,87.2" style="fill:none;fill-rule:evenodd;stroke:#000000;stroke-width:2.0px;stroke-linecap:butt;stroke-linejoin:miter;stroke-opacity:1"/>
<path class="bond-0 atom-0 atom-1" d="M 19.1,87.2 L 28.1,92.4" style="fill:none;fill-rule:evenodd;stroke:#FF0000;stroke-width:2.0px;stroke-linecap:butt;stroke-linejoin:miter;stroke-opacity:1"/>
<path class="bond-1 atom-1 atom-2" d="M 36.5,92.4 L 45.6,87.2" style="fill:none;fill-rule:evenodd;stroke:#FF0000;stroke-width:2.0px;stroke-linecap:butt;stroke-linejoin:miter;stroke-opacity:1"/>
<path class="bond-1 atom-1 atom-2" d="M 45.6,87.2 L 54.6,82.0" style="fill:none;fill-rule:evenodd;stroke:#000000;stroke-width:2.0px;stroke-linecap:butt;stroke-linejoin:miter;stroke-opacity:1"/>
<path class="bond-2 atom-2 atom-3" d="M 54.6,82.0 L 54.6,56.2" style="fill:none;fill-rule:evenodd;stroke:#000000;stroke-width:2.0px;stroke-linecap:butt;stroke-linejoin:miter;stroke-opacity:1"/>
<path class="bond-2 atom-2 atom-3" d="M 58.5,79.7 L 58.5,58.4" style="fill:none;fill-rule:evenodd;stroke:#000000;stroke-width:2.0px;stroke-linecap:butt;stroke-linejoin:miter;stroke-opacity:1"/>
<path class="bond-3 atom-3 atom-4" d="M 54.6,56.2 L 76.9,43.3" style="fill:none;fill-rule:evenodd;stroke:#000000;stroke-width:2.0px;stroke-linecap:butt;stroke-linejoin:miter;stroke-opacity:1"/>
<path class="bond-4 atom-4 atom-5" d="M 76.9,43.3 L 99.2,56.2" style="fill:none;fill-rule:evenodd;stroke:#000000;stroke-width:2.0px;stroke-linecap:butt;stroke-linejoin:miter;stroke-opacity:1"/>
<path class="bond-4 atom-4 atom-5" d="M 76.9,47.8 L 95.3,58.4" style="fill:none;fill-rule:evenodd;stroke:#000000;stroke-width:2.0px;stroke-linecap:butt;stroke-linejoin:miter;stroke-opacity:1"/>
<path class="bond-5 atom-5 atom-6" d="M 99.2,56.2 L 109.6,52.8" style="fill:none;fill-rule:evenodd;stroke:#000000;stroke-width:2.0px;stroke-linecap:butt;stroke-linejoin:miter;stroke-opacity:1"/>
<path class="bond-5 atom-5 atom-6" d="M 109.6,52.8 L 120.1,49.4" style="fill:none;fill-rule:evenodd;stroke:#0000FF;stroke-width:2.0px;stroke-linecap:butt;stroke-linejoin:miter;stroke-opacity:1"/>
<path class="bond-6 atom-6 atom-7" d="M 127.0,52.8 L 132.9,60.9" style="fill:none;fill-rule:evenodd;stroke:#0000FF;stroke-width:2.0px;stroke-linecap:butt;stroke-linejoin:miter;stroke-opacity:1"/>
<path class="bond-6 atom-6 atom-7" d="M 132.9,60.9 L 138.8,69.1" style="fill:none;fill-rule:evenodd;stroke:#000000;stroke-width:2.0px;stroke-linecap:butt;stroke-linejoin:miter;stroke-opacity:1"/>
<path class="bond-7 atom-7 atom-8" d="M 138.8,69.1 L 123.7,89.9" style="fill:none;fill-rule:evenodd;stroke:#000000;stroke-width:2.0px;stroke-linecap:butt;stroke-linejoin:miter;stroke-opacity:1"/>
<path class="bond-7 atom-7 atom-8" d="M 134.1,69.1 L 122.2,85.4" style="fill:none;fill-rule:evenodd;stroke:#000000;stroke-width:2.0px;stroke-linecap:butt;stroke-linejoin:miter;stroke-opacity:1"/>
<path class="bond-8 atom-8 atom-9" d="M 123.7,89.9 L 131.7,114.4" style="fill:none;fill-rule:evenodd;stroke:#000000;stroke-width:2.0px;stroke-linecap:butt;stroke-linejoin:miter;stroke-opacity:1"/>
<path class="bond-9 atom-9 atom-10" d="M 131.7,114.4 L 156.9,119.8" style="fill:none;fill-rule:evenodd;stroke:#000000;stroke-width:2.0px;stroke-linecap:butt;stroke-linejoin:miter;stroke-opacity:1"/>
<path class="bond-10 atom-10 atom-11" d="M 156.9,119.8 L 160.1,129.8" style="fill:none;fill-rule:evenodd;stroke:#000000;stroke-width:2.0px;stroke-linecap:butt;stroke-linejoin:miter;stroke-opacity:1"/>
<path class="bond-10 atom-10 atom-11" d="M 160.1,129.8 L 163.3,139.8" style="fill:none;fill-rule:evenodd;stroke:#0000FF;stroke-width:2.0px;stroke-linecap:butt;stroke-linejoin:miter;stroke-opacity:1"/>
<path class="bond-11 atom-11 atom-12" d="M 168.4,145.0 L 179.2,147.3" style="fill:none;fill-rule:evenodd;stroke:#0000FF;stroke-width:2.0px;stroke-linecap:butt;stroke-linejoin:miter;stroke-opacity:1"/>
<path class="bond-11 atom-11 atom-12" d="M 179.2,147.3 L 190.0,149.6" style="fill:none;fill-rule:evenodd;stroke:#000000;stroke-width:2.0px;stroke-linecap:butt;stroke-linejoin:miter;stroke-opacity:1"/>
<path class="bond-12 atom-11 atom-13" d="M 161.2,148.3 L 154.4,155.8" style="fill:none;fill-rule:evenodd;stroke:#0000FF;stroke-width:2.0px;stroke-linecap:butt;stroke-linejoin:miter;stroke-opacity:1"/>
<path class="bond-12 atom-11 atom-13" d="M 154.4,155.8 L 147.6,163.4" style="fill:none;fill-rule:evenodd;stroke:#000000;stroke-width:2.0px;stroke-linecap:butt;stroke-linejoin:miter;stroke-opacity:1"/>
<path class="bond-13 atom-8 atom-14" d="M 123.7,89.9 L 99.2,82.0" style="fill:none;fill-rule:evenodd;stroke:#000000;stroke-width:2.0px;stroke-linecap:butt;stroke-linejoin:miter;stroke-opacity:1"/>
<path class="bond-14 atom-14 atom-15" d="M 99.2,82.0 L 76.9,94.8" style="fill:none;fill-rule:evenodd;stroke:#000000;stroke-width:2.0px;stroke-linecap:butt;stroke-linejoin:miter;stroke-opacity:1"/>
<path class="bond-14 atom-14 atom-15" d="M 95.3,79.7 L 76.9,90.4" style="fill:none;fill-rule:evenodd;stroke:#000000;stroke-width:2.0px;stroke-linecap:butt;stroke-linejoin:miter;stroke-opacity:1"/>
<path class="bond-15 atom-15 atom-16" d="M 76.9,94.8 L 76.9,105.5" style="fill:none;fill-rule:evenodd;stroke:#000000;stroke-width:2.0px;stroke-linecap:butt;stroke-linejoin:miter;stroke-opacity:1"/>
<path class="bond-15 atom-15 atom-16" d="M 76.9,105.5 L 76.9,116.1" style="fill:none;fill-rule:evenodd;stroke:#33CCCC;stroke-width:2.0px;stroke-linecap:butt;stroke-linejoin:miter;stroke-opacity:1"/>
<path class="bond-16 atom-15 atom-2" d="M 76.9,94.8 L 54.6,82.0" style="fill:none;fill-rule:evenodd;stroke:#000000;stroke-width:2.0px;stroke-linecap:butt;stroke-linejoin:miter;stroke-opacity:1"/>
<path class="bond-17 atom-14 atom-5" d="M 99.2,82.0 L 99.2,56.2" style="fill:none;fill-rule:evenodd;stroke:#000000;stroke-width:2.0px;stroke-linecap:butt;stroke-linejoin:miter;stroke-opacity:1"/>
<path d="M 54.6,57.5 L 54.6,56.2 L 55.7,55.6" style="fill:none;stroke:#000000;stroke-width:2.0px;stroke-linecap:butt;stroke-linejoin:miter;stroke-opacity:1;"/>
<path d="M 75.8,44.0 L 76.9,43.3 L 78.0,44.0" style="fill:none;stroke:#000000;stroke-width:2.0px;stroke-linecap:butt;stroke-linejoin:miter;stroke-opacity:1;"/>
<path d="M 138.5,68.7 L 138.8,69.1 L 138.1,70.1" style="fill:none;stroke:#000000;stroke-width:2.0px;stroke-linecap:butt;stroke-linejoin:miter;stroke-opacity:1;"/>
<path d="M 131.3,113.2 L 131.7,114.4 L 132.9,114.7" style="fill:none;stroke:#000000;stroke-width:2.0px;stroke-linecap:butt;stroke-linejoin:miter;stroke-opacity:1;"/>
<path d="M 155.6,119.5 L 156.9,119.8 L 157.0,120.3" style="fill:none;stroke:#000000;stroke-width:2.0px;stroke-linecap:butt;stroke-linejoin:miter;stroke-opacity:1;"/>
<path class="atom-1" d="M 29.0 94.9 Q 29.0 93.1, 29.8 92.1 Q 30.7 91.2, 32.3 91.2 Q 33.9 91.2, 34.8 92.1 Q 35.7 93.1, 35.7 94.9 Q 35.7 96.6, 34.8 97.7 Q 33.9 98.6, 32.3 98.6 Q 30.7 98.6, 29.8 97.7 Q 29.0 96.7, 29.0 94.9 M 32.3 97.8 Q 33.4 97.8, 34.0 97.1 Q 34.6 96.3, 34.6 94.9 Q 34.6 93.4, 34.0 92.7 Q 33.4 92.0, 32.3 92.0 Q 31.2 92.0, 30.6 92.7 Q 30.0 93.4, 30.0 94.9 Q 30.0 96.3, 30.6 97.1 Q 31.2 97.8, 32.3 97.8 " fill="#FF0000"/>
<path class="atom-6" d="M 122.1 44.6 L 124.5 48.5 Q 124.7 48.9, 125.1 49.5 Q 125.5 50.2, 125.5 50.3 L 125.5 44.6 L 126.5 44.6 L 126.5 51.9 L 125.5 51.9 L 122.9 47.7 Q 122.6 47.2, 122.3 46.6 Q 122.0 46.1, 121.9 45.9 L 121.9 51.9 L 120.9 51.9 L 120.9 44.6 L 122.1 44.6 " fill="#0000FF"/>
<path class="atom-6" d="M 120.8 36.6 L 121.8 36.6 L 121.8 39.7 L 125.6 39.7 L 125.6 36.6 L 126.6 36.6 L 126.6 43.9 L 125.6 43.9 L 125.6 40.5 L 121.8 40.5 L 121.8 43.9 L 120.8 43.9 L 120.8 36.6 " fill="#0000FF"/>
<path class="atom-11" d="M 163.2 140.6 L 165.6 144.5 Q 165.8 144.9, 166.2 145.6 Q 166.6 146.2, 166.6 146.3 L 166.6 140.6 L 167.6 140.6 L 167.6 147.9 L 166.6 147.9 L 164.0 143.7 Q 163.7 143.2, 163.4 142.6 Q 163.1 142.1, 163.0 141.9 L 163.0 147.9 L 162.0 147.9 L 162.0 140.6 L 163.2 140.6 " fill="#0000FF"/>
<path class="atom-16" d="M 74.7 117.0 L 79.1 117.0 L 79.1 117.8 L 75.7 117.8 L 75.7 120.0 L 78.7 120.0 L 78.7 120.8 L 75.7 120.8 L 75.7 124.2 L 74.7 124.2 L 74.7 117.0 " fill="#33CCCC"/>
<path class="bond-0 atom-0 atom-1" d="M 379.9,149.6 L 369.1,147.3" style="fill:none;fill-rule:evenodd;stroke:#000000;stroke-width:2.0px;stroke-linecap:butt;stroke-linejoin:miter;stroke-opacity:1"/>
<path class="bond-0 atom-0 atom-1" d="M 369.1,147.3 L 358.4,145.0" style="fill:none;fill-rule:evenodd;stroke:#0000FF;stroke-width:2.0px;stroke-linecap:butt;stroke-linejoin:miter;stroke-opacity:1"/>
<path class="bond-1 atom-1 atom-2" d="M 351.1,148.3 L 344.3,155.8" style="fill:none;fill-rule:evenodd;stroke:#0000FF;stroke-width:2.0px;stroke-linecap:butt;stroke-linejoin:miter;stroke-opacity:1"/>
<path class="bond-1 atom-1 atom-2" d="M 344.3,155.8 L 337.5,163.4" style="fill:none;fill-rule:evenodd;stroke:#000000;stroke-width:2.0px;stroke-linecap:butt;stroke-linejoin:miter;stroke-opacity:1"/>
<path class="bond-2 atom-1 atom-3" d="M 353.3,139.8 L 350.0,129.8" style="fill:none;fill-rule:evenodd;stroke:#0000FF;stroke-width:2.0px;stroke-linecap:butt;stroke-linejoin:miter;stroke-opacity:1"/>
<path class="bond-2 atom-1 atom-3" d="M 350.0,129.8 L 346.8,119.8" style="fill:none;fill-rule:evenodd;stroke:#000000;stroke-width:2.0px;stroke-linecap:butt;stroke-linejoin:miter;stroke-opacity:1"/>
<path class="bond-3 atom-3 atom-4" d="M 346.8,119.8 L 321.6,114.4" style="fill:none;fill-rule:evenodd;stroke:#000000;stroke-width:2.0px;stroke-linecap:butt;stroke-linejoin:miter;stroke-opacity:1"/>
<path class="bond-4 atom-4 atom-5" d="M 321.6,114.4 L 313.6,89.9" style="fill:none;fill-rule:evenodd;stroke:#000000;stroke-width:2.0px;stroke-linecap:butt;stroke-linejoin:miter;stroke-opacity:1"/>
<path class="bond-5 atom-5 atom-6" d="M 313.6,89.9 L 328.8,69.1" style="fill:none;fill-rule:evenodd;stroke:#000000;stroke-width:2.0px;stroke-linecap:butt;stroke-linejoin:miter;stroke-opacity:1"/>
<path class="bond-5 atom-5 atom-6" d="M 312.2,85.4 L 324.0,69.1" style="fill:none;fill-rule:evenodd;stroke:#000000;stroke-width:2.0px;stroke-linecap:butt;stroke-linejoin:miter;stroke-opacity:1"/>
<path class="bond-6 atom-6 atom-7" d="M 328.8,69.1 L 322.8,60.9" style="fill:none;fill-rule:evenodd;stroke:#000000;stroke-width:2.0px;stroke-linecap:butt;stroke-linejoin:miter;stroke-opacity:1"/>
<path class="bond-6 atom-6 atom-7" d="M 322.8,60.9 L 316.9,52.8" style="fill:none;fill-rule:evenodd;stroke:#0000FF;stroke-width:2.0px;stroke-linecap:butt;stroke-linejoin:miter;stroke-opacity:1"/>
<path class="bond-7 atom-7 atom-8" d="M 310.0,49.4 L 299.6,52.8" style="fill:none;fill-rule:evenodd;stroke:#0000FF;stroke-width:2.0px;stroke-linecap:butt;stroke-linejoin:miter;stroke-opacity:1"/>
<path class="bond-7 atom-7 atom-8" d="M 299.6,52.8 L 289.1,56.2" style="fill:none;fill-rule:evenodd;stroke:#000000;stroke-width:2.0px;stroke-linecap:butt;stroke-linejoin:miter;stroke-opacity:1"/>
<path class="bond-8 atom-8 atom-9" d="M 289.1,56.2 L 266.8,43.3" style="fill:none;fill-rule:evenodd;stroke:#000000;stroke-width:2.0px;stroke-linecap:butt;stroke-linejoin:miter;stroke-opacity:1"/>
<path class="bond-8 atom-8 atom-9" d="M 285.3,58.4 L 266.8,47.8" style="fill:none;fill-rule:evenodd;stroke:#000000;stroke-width:2.0px;stroke-linecap:butt;stroke-linejoin:miter;stroke-opacity:1"/>
<path class="bond-9 atom-9 atom-10" d="M 266.8,43.3 L 244.5,56.2" style="fill:none;fill-rule:evenodd;stroke:#000000;stroke-width:2.0px;stroke-linecap:butt;stroke-linejoin:miter;stroke-opacity:1"/>
<path class="bond-10 atom-10 atom-11" d="M 244.5,56.2 L 234.9,50.7" style="fill:none;fill-rule:evenodd;stroke:#000000;stroke-width:2.0px;stroke-linecap:butt;stroke-linejoin:miter;stroke-opacity:1"/>
<path class="bond-10 atom-10 atom-11" d="M 234.9,50.7 L 225.3,45.1" style="fill:none;fill-rule:evenodd;stroke:#33CCCC;stroke-width:2.0px;stroke-linecap:butt;stroke-linejoin:miter;stroke-opacity:1"/>
<path class="bond-11 atom-10 atom-12" d="M 244.5,56.2 L 244.5,82.0" style="fill:none;fill-rule:evenodd;stroke:#000000;stroke-width:2.0px;stroke-linecap:butt;stroke-linejoin:miter;stroke-opacity:1"/>
<path class="bond-11 atom-10 atom-12" d="M 248.4,58.4 L 248.4,79.7" style="fill:none;fill-rule:evenodd;stroke:#000000;stroke-width:2.0px;stroke-linecap:butt;stroke-linejoin:miter;stroke-opacity:1"/>
<path class="bond-12 atom-12 atom-13" d="M 244.5,82.0 L 266.8,94.8" style="fill:none;fill-rule:evenodd;stroke:#000000;stroke-width:2.0px;stroke-linecap:butt;stroke-linejoin:miter;stroke-opacity:1"/>
<path class="bond-13 atom-13 atom-14" d="M 266.8,94.8 L 266.8,105.5" style="fill:none;fill-rule:evenodd;stroke:#000000;stroke-width:2.0px;stroke-linecap:butt;stroke-linejoin:miter;stroke-opacity:1"/>
<path class="bond-13 atom-13 atom-14" d="M 266.8,105.5 L 266.8,116.1" style="fill:none;fill-rule:evenodd;stroke:#FF0000;stroke-width:2.0px;stroke-linecap:butt;stroke-linejoin:miter;stroke-opacity:1"/>
<path class="bond-14 atom-13 atom-15" d="M 266.8,94.8 L 289.1,82.0" style="fill:none;fill-rule:evenodd;stroke:#000000;stroke-width:2.0px;stroke-linecap:butt;stroke-linejoin:miter;stroke-opacity:1"/>
<path class="bond-14 atom-13 atom-15" d="M 266.8,90.4 L 285.3,79.7" style="fill:none;fill-rule:evenodd;stroke:#000000;stroke-width:2.0px;stroke-linecap:butt;stroke-linejoin:miter;stroke-opacity:1"/>
<path class="bond-15 atom-15 atom-5" d="M 289.1,82.0 L 313.6,89.9" style="fill:none;fill-rule:evenodd;stroke:#000000;stroke-width:2.0px;stroke-linecap:butt;stroke-linejoin:miter;stroke-opacity:1"/>
<path class="bond-16 atom-15 atom-8" d="M 289.1,82.0 L 289.1,56.2" style="fill:none;fill-rule:evenodd;stroke:#000000;stroke-width:2.0px;stroke-linecap:butt;stroke-linejoin:miter;stroke-opacity:1"/>
<path d="M 346.9,120.3 L 346.8,119.8 L 345.5,119.5" style="fill:none;stroke:#000000;stroke-width:2.0px;stroke-linecap:butt;stroke-linejoin:miter;stroke-opacity:1;"/>
<path d="M 322.9,114.7 L 321.6,114.4 L 321.2,113.2" style="fill:none;stroke:#000000;stroke-width:2.0px;stroke-linecap:butt;stroke-linejoin:miter;stroke-opacity:1;"/>
<path d="M 328.0,70.1 L 328.8,69.1 L 328.5,68.7" style="fill:none;stroke:#000000;stroke-width:2.0px;stroke-linecap:butt;stroke-linejoin:miter;stroke-opacity:1;"/>
<path d="M 268.0,44.0 L 266.8,43.3 L 265.7,44.0" style="fill:none;stroke:#000000;stroke-width:2.0px;stroke-linecap:butt;stroke-linejoin:miter;stroke-opacity:1;"/>
<path d="M 244.5,80.7 L 244.5,82.0 L 245.7,82.6" style="fill:none;stroke:#000000;stroke-width:2.0px;stroke-linecap:butt;stroke-linejoin:miter;stroke-opacity:1;"/>
<path class="atom-1" d="M 353.1 140.6 L 355.5 144.5 Q 355.8 144.9, 356.1 145.6 Q 356.5 146.2, 356.5 146.3 L 356.5 140.6 L 357.5 140.6 L 357.5 147.9 L 356.5 147.9 L 353.9 143.7 Q 353.6 143.2, 353.3 142.6 Q 353.0 142.1, 352.9 141.9 L 352.9 147.9 L 352.0 147.9 L 352.0 140.6 L 353.1 140.6 " fill="#0000FF"/>
<path class="atom-7" d="M 312.0 44.6 L 314.4 48.5 Q 314.7 48.9, 315.0 49.5 Q 315.4 50.2, 315.4 50.3 L 315.4 44.6 L 316.4 44.6 L 316.4 51.9 L 315.4 51.9 L 312.8 47.7 Q 312.5 47.2, 312.2 46.6 Q 311.9 46.1, 311.8 45.9 L 311.8 51.9 L 310.9 51.9 L 310.9 44.6 L 312.0 44.6 " fill="#0000FF"/>
<path class="atom-7" d="M 310.8 36.6 L 311.8 36.6 L 311.8 39.7 L 315.5 39.7 L 315.5 36.6 L 316.5 36.6 L 316.5 43.9 L 315.5 43.9 L 315.5 40.5 L 311.8 40.5 L 311.8 43.9 L 310.8 43.9 L 310.8 36.6 " fill="#0000FF"/>
<path class="atom-11" d="M 220.1 39.7 L 224.4 39.7 L 224.4 40.5 L 221.0 40.5 L 221.0 42.7 L 224.0 42.7 L 224.0 43.6 L 221.0 43.6 L 221.0 47.0 L 220.1 47.0 L 220.1 39.7 " fill="#33CCCC"/>
<path class="atom-14" d="M 263.5 120.6 Q 263.5 118.9, 264.4 117.9 Q 265.2 116.9, 266.8 116.9 Q 268.5 116.9, 269.3 117.9 Q 270.2 118.9, 270.2 120.6 Q 270.2 122.4, 269.3 123.4 Q 268.4 124.4, 266.8 124.4 Q 265.2 124.4, 264.4 123.4 Q 263.5 122.4, 263.5 120.6 M 266.8 123.6 Q 268.0 123.6, 268.6 122.8 Q 269.2 122.1, 269.2 120.6 Q 269.2 119.2, 268.6 118.5 Q 268.0 117.7, 266.8 117.7 Q 265.7 117.7, 265.1 118.5 Q 264.5 119.2, 264.5 120.6 Q 264.5 122.1, 265.1 122.8 Q 265.7 123.6, 266.8 123.6 " fill="#FF0000"/>
<path class="atom-14" d="M 271.3 117.0 L 272.3 117.0 L 272.3 120.1 L 276.0 120.1 L 276.0 117.0 L 277.0 117.0 L 277.0 124.3 L 276.0 124.3 L 276.0 120.9 L 272.3 120.9 L 272.3 124.3 L 271.3 124.3 L 271.3 117.0 " fill="#FF0000"/>
<path class="bond-0 atom-0 atom-1" d="M 410.0,82.0 L 419.1,87.2" style="fill:none;fill-rule:evenodd;stroke:#000000;stroke-width:2.0px;stroke-linecap:butt;stroke-linejoin:miter;stroke-opacity:1"/>
<path class="bond-0 atom-0 atom-1" d="M 419.1,87.2 L 428.1,92.4" style="fill:none;fill-rule:evenodd;stroke:#FF0000;stroke-width:2.0px;stroke-linecap:butt;stroke-linejoin:miter;stroke-opacity:1"/>
<path class="bond-1 atom-1 atom-2" d="M 436.5,92.4 L 445.6,87.2" style="fill:none;fill-rule:evenodd;stroke:#FF0000;stroke-width:2.0px;stroke-linecap:butt;stroke-linejoin:miter;stroke-opacity:1"/>
<path class="bond-1 atom-1 atom-2" d="M 445.6,87.2 L 454.6,82.0" style="fill:none;fill-rule:evenodd;stroke:#000000;stroke-width:2.0px;stroke-linecap:butt;stroke-linejoin:miter;stroke-opacity:1"/>
<path class="bond-2 atom-2 atom-3" d="M 454.6,82.0 L 454.6,56.2" style="fill:none;fill-rule:evenodd;stroke:#000000;stroke-width:2.0px;stroke-linecap:butt;stroke-linejoin:miter;stroke-opacity:1"/>
<path class="bond-2 atom-2 atom-3" d="M 458.5,79.7 L 458.5,58.4" style="fill:none;fill-rule:evenodd;stroke:#000000;stroke-width:2.0px;stroke-linecap:butt;stroke-linejoin:miter;stroke-opacity:1"/>
<path class="bond-3 atom-3 atom-4" d="M 454.6,56.2 L 476.9,43.3" style="fill:none;fill-rule:evenodd;stroke:#000000;stroke-width:2.0px;stroke-linecap:butt;stroke-linejoin:miter;stroke-opacity:1"/>
<path class="bond-4 atom-4 atom-5" d="M 476.9,43.3 L 499.2,56.2" style="fill:none;fill-rule:evenodd;stroke:#000000;stroke-width:2.0px;stroke-linecap:butt;stroke-linejoin:miter;stroke-opacity:1"/>
<path class="bond-4 atom-4 atom-5" d="M 476.9,47.8 L 495.3,58.4" style="fill:none;fill-rule:evenodd;stroke:#000000;stroke-width:2.0px;stroke-linecap:butt;stroke-linejoin:miter;stroke-opacity:1"/>
<path class="bond-5 atom-5 atom-6" d="M 499.2,56.2 L 509.6,52.8" style="fill:none;fill-rule:evenodd;stroke:#000000;stroke-width:2.0px;stroke-linecap:butt;stroke-linejoin:miter;stroke-opacity:1"/>
<path class="bond-5 atom-5 atom-6" d="M 509.6,52.8 L 520.1,49.4" style="fill:none;fill-rule:evenodd;stroke:#0000FF;stroke-width:2.0px;stroke-linecap:butt;stroke-linejoin:miter;stroke-opacity:1"/>
<path class="bond-6 atom-6 atom-7" d="M 527.0,52.8 L 532.9,60.9" style="fill:none;fill-rule:evenodd;stroke:#0000FF;stroke-width:2.0px;stroke-linecap:butt;stroke-linejoin:miter;stroke-opacity:1"/>
<path class="bond-6 atom-6 atom-7" d="M 532.9,60.9 L 538.8,69.1" style="fill:none;fill-rule:evenodd;stroke:#000000;stroke-width:2.0px;stroke-linecap:butt;stroke-linejoin:miter;stroke-opacity:1"/>
<path class="bond-7 atom-7 atom-8" d="M 538.8,69.1 L 523.7,89.9" style="fill:none;fill-rule:evenodd;stroke:#000000;stroke-width:2.0px;stroke-linecap:butt;stroke-linejoin:miter;stroke-opacity:1"/>
<path class="bond-7 atom-7 atom-8" d="M 534.1,69.1 L 522.2,85.4" style="fill:none;fill-rule:evenodd;stroke:#000000;stroke-width:2.0px;stroke-linecap:butt;stroke-linejoin:miter;stroke-opacity:1"/>
<path class="bond-8 atom-8 atom-9" d="M 523.7,89.9 L 531.7,114.4" style="fill:none;fill-rule:evenodd;stroke:#000000;stroke-width:2.0px;stroke-linecap:butt;stroke-linejoin:miter;stroke-opacity:1"/>
<path class="bond-9 atom-9 atom-10" d="M 531.7,114.4 L 556.9,119.8" style="fill:none;fill-rule:evenodd;stroke:#000000;stroke-width:2.0px;stroke-linecap:butt;stroke-linejoin:miter;stroke-opacity:1"/>
<path class="bond-10 atom-10 atom-11" d="M 556.9,119.8 L 560.1,129.8" style="fill:none;fill-rule:evenodd;stroke:#000000;stroke-width:2.0px;stroke-linecap:butt;stroke-linejoin:miter;stroke-opacity:1"/>
<path class="bond-10 atom-10 atom-11" d="M 560.1,129.8 L 563.3,139.8" style="fill:none;fill-rule:evenodd;stroke:#0000FF;stroke-width:2.0px;stroke-linecap:butt;stroke-linejoin:miter;stroke-opacity:1"/>
<path class="bond-11 atom-11 atom-12" d="M 568.4,145.0 L 579.2,147.3" style="fill:none;fill-rule:evenodd;stroke:#0000FF;stroke-width:2.0px;stroke-linecap:butt;stroke-linejoin:miter;stroke-opacity:1"/>
<path class="bond-11 atom-11 atom-12" d="M 579.2,147.3 L 590.0,149.6" style="fill:none;fill-rule:evenodd;stroke:#000000;stroke-width:2.0px;stroke-linecap:butt;stroke-linejoin:miter;stroke-opacity:1"/>
<path class="bond-12 atom-11 atom-13" d="M 561.2,148.3 L 554.4,155.8" style="fill:none;fill-rule:evenodd;stroke:#0000FF;stroke-width:2.0px;stroke-linecap:butt;stroke-linejoin:miter;stroke-opacity:1"/>
<path class="bond-12 atom-11 atom-13" d="M 554.4,155.8 L 547.6,163.4" style="fill:none;fill-rule:evenodd;stroke:#000000;stroke-width:2.0px;stroke-linecap:butt;stroke-linejoin:miter;stroke-opacity:1"/>
<path class="bond-13 atom-8 atom-14" d="M 523.7,89.9 L 499.2,82.0" style="fill:none;fill-rule:evenodd;stroke:#000000;stroke-width:2.0px;stroke-linecap:butt;stroke-linejoin:miter;stroke-opacity:1"/>
<path class="bond-14 atom-14 atom-15" d="M 499.2,82.0 L 476.9,94.8" style="fill:none;fill-rule:evenodd;stroke:#000000;stroke-width:2.0px;stroke-linecap:butt;stroke-linejoin:miter;stroke-opacity:1"/>
<path class="bond-14 atom-14 atom-15" d="M 495.3,79.7 L 476.9,90.4" style="fill:none;fill-rule:evenodd;stroke:#000000;stroke-width:2.0px;stroke-linecap:butt;stroke-linejoin:miter;stroke-opacity:1"/>
<path class="bond-15 atom-15 atom-2" d="M 476.9,94.8 L 454.6,82.0" style="fill:none;fill-rule:evenodd;stroke:#000000;stroke-width:2.0px;stroke-linecap:butt;stroke-linejoin:miter;stroke-opacity:1"/>
<path class="bond-16 atom-14 atom-5" d="M 499.2,82.0 L 499.2,56.2" style="fill:none;fill-rule:evenodd;stroke:#000000;stroke-width:2.0px;stroke-linecap:butt;stroke-linejoin:miter;stroke-opacity:1"/>
<path d="M 454.6,57.5 L 454.6,56.2 L 455.7,55.6" style="fill:none;stroke:#000000;stroke-width:2.0px;stroke-linecap:butt;stroke-linejoin:miter;stroke-opacity:1;"/>
<path d="M 475.8,44.0 L 476.9,43.3 L 478.0,44.0" style="fill:none;stroke:#000000;stroke-width:2.0px;stroke-linecap:butt;stroke-linejoin:miter;stroke-opacity:1;"/>
<path d="M 538.5,68.7 L 538.8,69.1 L 538.1,70.1" style="fill:none;stroke:#000000;stroke-width:2.0px;stroke-linecap:butt;stroke-linejoin:miter;stroke-opacity:1;"/>
<path d="M 531.3,113.2 L 531.7,114.4 L 532.9,114.7" style="fill:none;stroke:#000000;stroke-width:2.0px;stroke-linecap:butt;stroke-linejoin:miter;stroke-opacity:1;"/>
<path d="M 555.6,119.5 L 556.9,119.8 L 557.0,120.3" style="fill:none;stroke:#000000;stroke-width:2.0px;stroke-linecap:butt;stroke-linejoin:miter;stroke-opacity:1;"/>
<path d="M 478.0,94.2 L 476.9,94.8 L 475.8,94.2" style="fill:none;stroke:#000000;stroke-width:2.0px;stroke-linecap:butt;stroke-linejoin:miter;stroke-opacity:1;"/>
<path class="atom-1" d="M 429.0 94.9 Q 429.0 93.1, 429.8 92.1 Q 430.7 91.2, 432.3 91.2 Q 433.9 91.2, 434.8 92.1 Q 435.7 93.1, 435.7 94.9 Q 435.7 96.6, 434.8 97.7 Q 433.9 98.6, 432.3 98.6 Q 430.7 98.6, 429.8 97.7 Q 429.0 96.7, 429.0 94.9 M 432.3 97.8 Q 433.4 97.8, 434.0 97.1 Q 434.6 96.3, 434.6 94.9 Q 434.6 93.4, 434.0 92.7 Q 433.4 92.0, 432.3 92.0 Q 431.2 92.0, 430.6 92.7 Q 430.0 93.4, 430.0 94.9 Q 430.0 96.3, 430.6 97.1 Q 431.2 97.8, 432.3 97.8 " fill="#FF0000"/>
<path class="atom-6" d="M 522.1 44.6 L 524.5 48.5 Q 524.7 48.9, 525.1 49.5 Q 525.5 50.2, 525.5 50.3 L 525.5 44.6 L 526.5 44.6 L 526.5 51.9 L 525.5 51.9 L 522.9 47.7 Q 522.6 47.2, 522.3 46.6 Q 522.0 46.1, 521.9 45.9 L 521.9 51.9 L 520.9 51.9 L 520.9 44.6 L 522.1 44.6 " fill="#0000FF"/>
<path class="atom-6" d="M 520.8 36.6 L 521.8 36.6 L 521.8 39.7 L 525.6 39.7 L 525.6 36.6 L 526.6 36.6 L 526.6 43.9 L 525.6 43.9 L 525.6 40.5 L 521.8 40.5 L 521.8 43.9 L 520.8 43.9 L 520.8 36.6 " fill="#0000FF"/>
<path class="atom-11" d="M 563.2 140.6 L 565.6 144.5 Q 565.8 144.9, 566.2 145.6 Q 566.6 146.2, 566.6 146.3 L 566.6 140.6 L 567.6 140.6 L 567.6 147.9 L 566.6 147.9 L 564.0 143.7 Q 563.7 143.2, 563.4 142.6 Q 563.1 142.1, 563.0 141.9 L 563.0 147.9 L 562.0 147.9 L 562.0 140.6 L 563.2 140.6 " fill="#0000FF"/>
<path class="bond-0 atom-0 atom-1" d="M 167.7,360.9 L 156.9,358.7" style="fill:none;fill-rule:evenodd;stroke:#000000;stroke-width:2.0px;stroke-linecap:butt;stroke-linejoin:miter;stroke-opacity:1"/>
<path class="bond-0 atom-0 atom-1" d="M 156.9,358.7 L 146.1,356.4" style="fill:none;fill-rule:evenodd;stroke:#0000FF;stroke-width:2.0px;stroke-linecap:butt;stroke-linejoin:miter;stroke-opacity:1"/>
<path class="bond-1 atom-1 atom-2" d="M 138.9,359.6 L 132.1,367.2" style="fill:none;fill-rule:evenodd;stroke:#0000FF;stroke-width:2.0px;stroke-linecap:butt;stroke-linejoin:miter;stroke-opacity:1"/>
<path class="bond-1 atom-1 atom-2" d="M 132.1,367.2 L 125.3,374.7" style="fill:none;fill-rule:evenodd;stroke:#000000;stroke-width:2.0px;stroke-linecap:butt;stroke-linejoin:miter;stroke-opacity:1"/>
<path class="bond-2 atom-1 atom-3" d="M 141.0,351.1 L 137.8,341.1" style="fill:none;fill-rule:evenodd;stroke:#0000FF;stroke-width:2.0px;stroke-linecap:butt;stroke-linejoin:miter;stroke-opacity:1"/>
<path class="bond-2 atom-1 atom-3" d="M 137.8,341.1 L 134.5,331.1" style="fill:none;fill-rule:evenodd;stroke:#000000;stroke-width:2.0px;stroke-linecap:butt;stroke-linejoin:miter;stroke-opacity:1"/>
<path class="bond-3 atom-3 atom-4" d="M 134.5,331.1 L 109.4,325.7" style="fill:none;fill-rule:evenodd;stroke:#000000;stroke-width:2.0px;stroke-linecap:butt;stroke-linejoin:miter;stroke-opacity:1"/>
<path class="bond-4 atom-4 atom-5" d="M 109.4,325.7 L 101.4,301.3" style="fill:none;fill-rule:evenodd;stroke:#000000;stroke-width:2.0px;stroke-linecap:butt;stroke-linejoin:miter;stroke-opacity:1"/>
<path class="bond-5 atom-5 atom-6" d="M 101.4,301.3 L 116.5,280.4" style="fill:none;fill-rule:evenodd;stroke:#000000;stroke-width:2.0px;stroke-linecap:butt;stroke-linejoin:miter;stroke-opacity:1"/>
<path class="bond-5 atom-5 atom-6" d="M 99.9,296.7 L 111.8,280.4" style="fill:none;fill-rule:evenodd;stroke:#000000;stroke-width:2.0px;stroke-linecap:butt;stroke-linejoin:miter;stroke-opacity:1"/>
<path class="bond-6 atom-6 atom-7" d="M 116.5,280.4 L 110.6,272.3" style="fill:none;fill-rule:evenodd;stroke:#000000;stroke-width:2.0px;stroke-linecap:butt;stroke-linejoin:miter;stroke-opacity:1"/>
<path class="bond-6 atom-6 atom-7" d="M 110.6,272.3 L 104.7,264.1" style="fill:none;fill-rule:evenodd;stroke:#0000FF;stroke-width:2.0px;stroke-linecap:butt;stroke-linejoin:miter;stroke-opacity:1"/>
<path class="bond-7 atom-7 atom-8" d="M 97.8,260.8 L 87.3,264.2" style="fill:none;fill-rule:evenodd;stroke:#0000FF;stroke-width:2.0px;stroke-linecap:butt;stroke-linejoin:miter;stroke-opacity:1"/>
<path class="bond-7 atom-7 atom-8" d="M 87.3,264.2 L 76.9,267.5" style="fill:none;fill-rule:evenodd;stroke:#000000;stroke-width:2.0px;stroke-linecap:butt;stroke-linejoin:miter;stroke-opacity:1"/>
<path class="bond-8 atom-8 atom-9" d="M 76.9,267.5 L 54.6,254.7" style="fill:none;fill-rule:evenodd;stroke:#000000;stroke-width:2.0px;stroke-linecap:butt;stroke-linejoin:miter;stroke-opacity:1"/>
<path class="bond-8 atom-8 atom-9" d="M 73.0,269.8 L 54.6,259.1" style="fill:none;fill-rule:evenodd;stroke:#000000;stroke-width:2.0px;stroke-linecap:butt;stroke-linejoin:miter;stroke-opacity:1"/>
<path class="bond-9 atom-9 atom-10" d="M 54.6,254.7 L 54.6,244.0" style="fill:none;fill-rule:evenodd;stroke:#000000;stroke-width:2.0px;stroke-linecap:butt;stroke-linejoin:miter;stroke-opacity:1"/>
<path class="bond-9 atom-9 atom-10" d="M 54.6,244.0 L 54.6,233.4" style="fill:none;fill-rule:evenodd;stroke:#33CCCC;stroke-width:2.0px;stroke-linecap:butt;stroke-linejoin:miter;stroke-opacity:1"/>
<path class="bond-10 atom-9 atom-11" d="M 54.6,254.7 L 32.3,267.5" style="fill:none;fill-rule:evenodd;stroke:#000000;stroke-width:2.0px;stroke-linecap:butt;stroke-linejoin:miter;stroke-opacity:1"/>
<path class="bond-11 atom-11 atom-12" d="M 32.3,267.5 L 32.3,293.3" style="fill:none;fill-rule:evenodd;stroke:#000000;stroke-width:2.0px;stroke-linecap:butt;stroke-linejoin:miter;stroke-opacity:1"/>
<path class="bond-11 atom-11 atom-12" d="M 36.2,269.8 L 36.2,291.1" style="fill:none;fill-rule:evenodd;stroke:#000000;stroke-width:2.0px;stroke-linecap:butt;stroke-linejoin:miter;stroke-opacity:1"/>
<path class="bond-12 atom-12 atom-13" d="M 32.3,293.3 L 54.6,306.2" style="fill:none;fill-rule:evenodd;stroke:#000000;stroke-width:2.0px;stroke-linecap:butt;stroke-linejoin:miter;stroke-opacity:1"/>
<path class="bond-13 atom-13 atom-14" d="M 54.6,306.2 L 54.6,316.8" style="fill:none;fill-rule:evenodd;stroke:#000000;stroke-width:2.0px;stroke-linecap:butt;stroke-linejoin:miter;stroke-opacity:1"/>
<path class="bond-13 atom-13 atom-14" d="M 54.6,316.8 L 54.6,327.4" style="fill:none;fill-rule:evenodd;stroke:#FF0000;stroke-width:2.0px;stroke-linecap:butt;stroke-linejoin:miter;stroke-opacity:1"/>
<path class="bond-14 atom-13 atom-15" d="M 54.6,306.2 L 76.9,293.3" style="fill:none;fill-rule:evenodd;stroke:#000000;stroke-width:2.0px;stroke-linecap:butt;stroke-linejoin:miter;stroke-opacity:1"/>
<path class="bond-14 atom-13 atom-15" d="M 54.6,301.7 L 73.0,291.1" style="fill:none;fill-rule:evenodd;stroke:#000000;stroke-width:2.0px;stroke-linecap:butt;stroke-linejoin:miter;stroke-opacity:1"/>
<path class="bond-15 atom-15 atom-5" d="M 76.9,293.3 L 101.4,301.3" style="fill:none;fill-rule:evenodd;stroke:#000000;stroke-width:2.0px;stroke-linecap:butt;stroke-linejoin:miter;stroke-opacity:1"/>
<path class="bond-16 atom-15 atom-8" d="M 76.9,293.3 L 76.9,267.5" style="fill:none;fill-rule:evenodd;stroke:#000000;stroke-width:2.0px;stroke-linecap:butt;stroke-linejoin:miter;stroke-opacity:1"/>
<path d="M 134.7,331.6 L 134.5,331.1 L 133.3,330.8" style="fill:none;stroke:#000000;stroke-width:2.0px;stroke-linecap:butt;stroke-linejoin:miter;stroke-opacity:1;"/>
<path d="M 110.6,326.0 L 109.4,325.7 L 109.0,324.5" style="fill:none;stroke:#000000;stroke-width:2.0px;stroke-linecap:butt;stroke-linejoin:miter;stroke-opacity:1;"/>
<path d="M 115.8,281.5 L 116.5,280.4 L 116.2,280.0" style="fill:none;stroke:#000000;stroke-width:2.0px;stroke-linecap:butt;stroke-linejoin:miter;stroke-opacity:1;"/>
<path d="M 33.4,266.9 L 32.3,267.5 L 32.3,268.8" style="fill:none;stroke:#000000;stroke-width:2.0px;stroke-linecap:butt;stroke-linejoin:miter;stroke-opacity:1;"/>
<path d="M 32.3,292.0 L 32.3,293.3 L 33.4,293.9" style="fill:none;stroke:#000000;stroke-width:2.0px;stroke-linecap:butt;stroke-linejoin:miter;stroke-opacity:1;"/>
<path class="atom-1" d="M 140.9 351.9 L 143.3 355.8 Q 143.5 356.2, 143.9 356.9 Q 144.3 357.6, 144.3 357.6 L 144.3 351.9 L 145.3 351.9 L 145.3 359.2 L 144.3 359.2 L 141.7 355.0 Q 141.4 354.5, 141.1 354.0 Q 140.8 353.4, 140.7 353.2 L 140.7 359.2 L 139.7 359.2 L 139.7 351.9 L 140.9 351.9 " fill="#0000FF"/>
<path class="atom-7" d="M 99.8 255.9 L 102.2 259.8 Q 102.4 260.2, 102.8 260.9 Q 103.2 261.6, 103.2 261.6 L 103.2 255.9 L 104.2 255.9 L 104.2 263.2 L 103.2 263.2 L 100.6 259.0 Q 100.3 258.5, 100.0 257.9 Q 99.7 257.4, 99.6 257.2 L 99.6 263.2 L 98.6 263.2 L 98.6 255.9 L 99.8 255.9 " fill="#0000FF"/>
<path class="atom-7" d="M 98.5 247.9 L 99.5 247.9 L 99.5 251.0 L 103.3 251.0 L 103.3 247.9 L 104.3 247.9 L 104.3 255.2 L 103.3 255.2 L 103.3 251.8 L 99.5 251.8 L 99.5 255.2 L 98.5 255.2 L 98.5 247.9 " fill="#0000FF"/>
<path class="atom-10" d="M 52.4 225.3 L 56.8 225.3 L 56.8 226.1 L 53.4 226.1 L 53.4 228.3 L 56.4 228.3 L 56.4 229.2 L 53.4 229.2 L 53.4 232.6 L 52.4 232.6 L 52.4 225.3 " fill="#33CCCC"/>
<path class="atom-14" d="M 51.3 331.9 Q 51.3 330.2, 52.1 329.2 Q 53.0 328.2, 54.6 328.2 Q 56.2 328.2, 57.1 329.2 Q 58.0 330.2, 58.0 331.9 Q 58.0 333.7, 57.1 334.7 Q 56.2 335.7, 54.6 335.7 Q 53.0 335.7, 52.1 334.7 Q 51.3 333.7, 51.3 331.9 M 54.6 334.9 Q 55.7 334.9, 56.3 334.2 Q 56.9 333.4, 56.9 331.9 Q 56.9 330.5, 56.3 329.8 Q 55.7 329.1, 54.6 329.1 Q 53.5 329.1, 52.9 329.8 Q 52.3 330.5, 52.3 331.9 Q 52.3 333.4, 52.9 334.2 Q 53.5 334.9, 54.6 334.9 " fill="#FF0000"/>
<path class="atom-14" d="M 59.1 328.3 L 60.1 328.3 L 60.1 331.4 L 63.8 331.4 L 63.8 328.3 L 64.8 328.3 L 64.8 335.6 L 63.8 335.6 L 63.8 332.2 L 60.1 332.2 L 60.1 335.6 L 59.1 335.6 L 59.1 328.3 " fill="#FF0000"/>
</svg>