<svg xmlns="http://www.w3.org/2000/svg" xmlns:rdkit="http://www.rdkit.org/xml" xmlns:xlink="http://www.w3.org/1999/xlink" version="1.1" baseProfile="full" xml:space="preserve" width="600px" height="200px" viewBox="0 0 600 200">
<!-- END OF HEADER -->
<rect style="opacity:1.0;fill:#FFFFFF;stroke:none" width="600.0" height="200.0" x="0.0" y="0.0"> </rect>
<path class="bond-0 atom-0 atom-1" d="M 35.9,74.8 L 40.1,80.1" style="fill:none;fill-rule:evenodd;stroke:#FF0000;stroke-width:2.0px;stroke-linecap:butt;stroke-linejoin:miter;stroke-opacity:1"/>
<path class="bond-0 atom-0 atom-1" d="M 40.1,80.1 L 44.3,85.4" style="fill:none;fill-rule:evenodd;stroke:#000000;stroke-width:2.0px;stroke-linecap:butt;stroke-linejoin:miter;stroke-opacity:1"/>
<path class="bond-0 atom-0 atom-1" d="M 34.0,76.4 L 38.2,81.6" style="fill:none;fill-rule:evenodd;stroke:#FF0000;stroke-width:2.0px;stroke-linecap:butt;stroke-linejoin:miter;stroke-opacity:1"/>
<path class="bond-0 atom-0 atom-1" d="M 38.2,81.6 L 42.4,86.9" style="fill:none;fill-rule:evenodd;stroke:#000000;stroke-width:2.0px;stroke-linecap:butt;stroke-linejoin:miter;stroke-opacity:1"/>
<path class="bond-1 atom-1 atom-2" d="M 42.9,85.6 L 59.3,83.1" style="fill:none;fill-rule:evenodd;stroke:#000000;stroke-width:2.0px;stroke-linecap:butt;stroke-linejoin:miter;stroke-opacity:1"/>
<path class="bond-2 atom-2 atom-3" d="M 59.3,83.1 L 69.6,96.0" style="fill:none;fill-rule:evenodd;stroke:#000000;stroke-width:2.0px;stroke-linecap:butt;stroke-linejoin:miter;stroke-opacity:1"/>
<path class="bond-3 atom-3 atom-4" d="M 69.6,96.0 L 76.6,95.0" style="fill:none;fill-rule:evenodd;stroke:#000000;stroke-width:2.0px;stroke-linecap:butt;stroke-linejoin:miter;stroke-opacity:1"/>
<path class="bond-3 atom-3 atom-4" d="M 76.6,95.0 L 83.6,93.9" style="fill:none;fill-rule:evenodd;stroke:#0000FF;stroke-width:2.0px;stroke-linecap:butt;stroke-linejoin:miter;stroke-opacity:1"/>
<path class="bond-4 atom-4 atom-5" d="M 87.1,90.6 L 89.5,84.4" style="fill:none;fill-rule:evenodd;stroke:#0000FF;stroke-width:2.0px;stroke-linecap:butt;stroke-linejoin:miter;stroke-opacity:1"/>
<path class="bond-4 atom-4 atom-5" d="M 89.5,84.4 L 92.0,78.1" style="fill:none;fill-rule:evenodd;stroke:#000000;stroke-width:2.0px;stroke-linecap:butt;stroke-linejoin:miter;stroke-opacity:1"/>
<path class="bond-5 atom-5 atom-6" d="M 92.0,78.1 L 108.4,75.6" style="fill:none;fill-rule:evenodd;stroke:#000000;stroke-width:2.0px;stroke-linecap:butt;stroke-linejoin:miter;stroke-opacity:1"/>
<path class="bond-6 atom-6 atom-7" d="M 108.4,75.6 L 112.4,80.7" style="fill:none;fill-rule:evenodd;stroke:#000000;stroke-width:2.0px;stroke-linecap:butt;stroke-linejoin:miter;stroke-opacity:1"/>
<path class="bond-6 atom-6 atom-7" d="M 112.4,80.7 L 116.4,85.7" style="fill:none;fill-rule:evenodd;stroke:#0000FF;stroke-width:2.0px;stroke-linecap:butt;stroke-linejoin:miter;stroke-opacity:1"/>
<path class="bond-7 atom-7 atom-8" d="M 121.0,88.2 L 128.0,87.2" style="fill:none;fill-rule:evenodd;stroke:#0000FF;stroke-width:2.0px;stroke-linecap:butt;stroke-linejoin:miter;stroke-opacity:1"/>
<path class="bond-7 atom-7 atom-8" d="M 128.0,87.2 L 135.0,86.1" style="fill:none;fill-rule:evenodd;stroke:#000000;stroke-width:2.0px;stroke-linecap:butt;stroke-linejoin:miter;stroke-opacity:1"/>
<path class="bond-8 atom-8 atom-9" d="M 135.0,86.1 L 145.4,99.0" style="fill:none;fill-rule:evenodd;stroke:#000000;stroke-width:2.0px;stroke-linecap:butt;stroke-linejoin:miter;stroke-opacity:1"/>
<path class="bond-8 atom-8 atom-9" d="M 137.9,85.7 L 146.4,96.4" style="fill:none;fill-rule:evenodd;stroke:#000000;stroke-width:2.0px;stroke-linecap:butt;stroke-linejoin:miter;stroke-opacity:1"/>
<path class="bond-9 atom-9 atom-10" d="M 145.4,99.0 L 161.7,96.5" style="fill:none;fill-rule:evenodd;stroke:#000000;stroke-width:2.0px;stroke-linecap:butt;stroke-linejoin:miter;stroke-opacity:1"/>
<path class="bond-10 atom-10 atom-11" d="M 161.7,96.5 L 167.8,81.1" style="fill:none;fill-rule:evenodd;stroke:#000000;stroke-width:2.0px;stroke-linecap:butt;stroke-linejoin:miter;stroke-opacity:1"/>
<path class="bond-10 atom-10 atom-11" d="M 160.0,94.3 L 164.9,81.6" style="fill:none;fill-rule:evenodd;stroke:#000000;stroke-width:2.0px;stroke-linecap:butt;stroke-linejoin:miter;stroke-opacity:1"/>
<path class="bond-11 atom-11 atom-12" d="M 167.8,81.1 L 175.0,80.0" style="fill:none;fill-rule:evenodd;stroke:#000000;stroke-width:2.0px;stroke-linecap:butt;stroke-linejoin:miter;stroke-opacity:1"/>
<path class="bond-11 atom-11 atom-12" d="M 175.0,80.0 L 182.2,78.9" style="fill:none;fill-rule:evenodd;stroke:#33CCCC;stroke-width:2.0px;stroke-linecap:butt;stroke-linejoin:miter;stroke-opacity:1"/>
<path class="bond-12 atom-11 atom-13" d="M 167.8,81.1 L 157.4,68.2" style="fill:none;fill-rule:evenodd;stroke:#000000;stroke-width:2.0px;stroke-linecap:butt;stroke-linejoin:miter;stroke-opacity:1"/>
<path class="bond-13 atom-13 atom-14" d="M 157.4,68.2 L 141.1,70.7" style="fill:none;fill-rule:evenodd;stroke:#000000;stroke-width:2.0px;stroke-linecap:butt;stroke-linejoin:miter;stroke-opacity:1"/>
<path class="bond-13 atom-13 atom-14" d="M 156.4,70.9 L 142.9,72.9" style="fill:none;fill-rule:evenodd;stroke:#000000;stroke-width:2.0px;stroke-linecap:butt;stroke-linejoin:miter;stroke-opacity:1"/>
<path class="bond-14 atom-7 atom-15" d="M 117.6,91.5 L 115.1,97.7" style="fill:none;fill-rule:evenodd;stroke:#0000FF;stroke-width:2.0px;stroke-linecap:butt;stroke-linejoin:miter;stroke-opacity:1"/>
<path class="bond-14 atom-7 atom-15" d="M 115.1,97.7 L 112.7,104.0" style="fill:none;fill-rule:evenodd;stroke:#000000;stroke-width:2.0px;stroke-linecap:butt;stroke-linejoin:miter;stroke-opacity:1"/>
<path class="bond-15 atom-15 atom-16" d="M 112.7,104.0 L 96.3,106.5" style="fill:none;fill-rule:evenodd;stroke:#000000;stroke-width:2.0px;stroke-linecap:butt;stroke-linejoin:miter;stroke-opacity:1"/>
<path class="bond-16 atom-1 atom-17" d="M 42.9,85.6 L 36.9,101.0" style="fill:none;fill-rule:evenodd;stroke:#000000;stroke-width:2.0px;stroke-linecap:butt;stroke-linejoin:miter;stroke-opacity:1"/>
<path class="bond-17 atom-17 atom-18" d="M 36.9,101.0 L 20.5,103.5" style="fill:none;fill-rule:evenodd;stroke:#000000;stroke-width:2.0px;stroke-linecap:butt;stroke-linejoin:miter;stroke-opacity:1"/>
<path class="bond-17 atom-17 atom-18" d="M 35.8,103.6 L 22.3,105.7" style="fill:none;fill-rule:evenodd;stroke:#000000;stroke-width:2.0px;stroke-linecap:butt;stroke-linejoin:miter;stroke-opacity:1"/>
<path class="bond-18 atom-18 atom-19" d="M 20.5,103.5 L 14.5,118.9" style="fill:none;fill-rule:evenodd;stroke:#000000;stroke-width:2.0px;stroke-linecap:butt;stroke-linejoin:miter;stroke-opacity:1"/>
<path class="bond-19 atom-19 atom-20" d="M 14.5,118.9 L 24.8,131.8" style="fill:none;fill-rule:evenodd;stroke:#000000;stroke-width:2.0px;stroke-linecap:butt;stroke-linejoin:miter;stroke-opacity:1"/>
<path class="bond-19 atom-19 atom-20" d="M 17.3,118.4 L 25.8,129.1" style="fill:none;fill-rule:evenodd;stroke:#000000;stroke-width:2.0px;stroke-linecap:butt;stroke-linejoin:miter;stroke-opacity:1"/>
<path class="bond-20 atom-20 atom-21" d="M 24.8,131.8 L 41.2,129.3" style="fill:none;fill-rule:evenodd;stroke:#000000;stroke-width:2.0px;stroke-linecap:butt;stroke-linejoin:miter;stroke-opacity:1"/>
<path class="bond-21 atom-21 atom-22" d="M 41.2,129.3 L 47.2,113.9" style="fill:none;fill-rule:evenodd;stroke:#000000;stroke-width:2.0px;stroke-linecap:butt;stroke-linejoin:miter;stroke-opacity:1"/>
<path class="bond-21 atom-21 atom-22" d="M 39.4,127.1 L 44.4,114.3" style="fill:none;fill-rule:evenodd;stroke:#000000;stroke-width:2.0px;stroke-linecap:butt;stroke-linejoin:miter;stroke-opacity:1"/>
<path class="bond-22 atom-16 atom-4" d="M 96.3,106.5 L 92.3,101.4" style="fill:none;fill-rule:evenodd;stroke:#000000;stroke-width:2.0px;stroke-linecap:butt;stroke-linejoin:miter;stroke-opacity:1"/>
<path class="bond-22 atom-16 atom-4" d="M 92.3,101.4 L 88.3,96.4" style="fill:none;fill-rule:evenodd;stroke:#0000FF;stroke-width:2.0px;stroke-linecap:butt;stroke-linejoin:miter;stroke-opacity:1"/>
<path class="bond-23 atom-22 atom-17" d="M 47.2,113.9 L 36.9,101.0" style="fill:none;fill-rule:evenodd;stroke:#000000;stroke-width:2.0px;stroke-linecap:butt;stroke-linejoin:miter;stroke-opacity:1"/>
<path class="bond-24 atom-14 atom-8" d="M 141.1,70.7 L 135.0,86.1" style="fill:none;fill-rule:evenodd;stroke:#000000;stroke-width:2.0px;stroke-linecap:butt;stroke-linejoin:miter;stroke-opacity:1"/>
<path d="M 43.7,85.4 L 42.9,85.6 L 42.6,86.3" style="fill:none;stroke:#000000;stroke-width:2.0px;stroke-linecap:butt;stroke-linejoin:miter;stroke-opacity:1;"/>
<path d="M 58.4,83.2 L 59.3,83.1 L 59.8,83.7" style="fill:none;stroke:#000000;stroke-width:2.0px;stroke-linecap:butt;stroke-linejoin:miter;stroke-opacity:1;"/>
<path d="M 69.1,95.4 L 69.6,96.0 L 69.9,96.0" style="fill:none;stroke:#000000;stroke-width:2.0px;stroke-linecap:butt;stroke-linejoin:miter;stroke-opacity:1;"/>
<path d="M 91.9,78.4 L 92.0,78.1 L 92.8,78.0" style="fill:none;stroke:#000000;stroke-width:2.0px;stroke-linecap:butt;stroke-linejoin:miter;stroke-opacity:1;"/>
<path d="M 107.5,75.8 L 108.4,75.6 L 108.6,75.9" style="fill:none;stroke:#000000;stroke-width:2.0px;stroke-linecap:butt;stroke-linejoin:miter;stroke-opacity:1;"/>
<path d="M 144.9,98.4 L 145.4,99.0 L 146.2,98.9" style="fill:none;stroke:#000000;stroke-width:2.0px;stroke-linecap:butt;stroke-linejoin:miter;stroke-opacity:1;"/>
<path d="M 160.9,96.7 L 161.7,96.5 L 162.0,95.8" style="fill:none;stroke:#000000;stroke-width:2.0px;stroke-linecap:butt;stroke-linejoin:miter;stroke-opacity:1;"/>
<path d="M 158.0,68.8 L 157.4,68.2 L 156.6,68.3" style="fill:none;stroke:#000000;stroke-width:2.0px;stroke-linecap:butt;stroke-linejoin:miter;stroke-opacity:1;"/>
<path d="M 141.9,70.6 L 141.1,70.7 L 140.8,71.5" style="fill:none;stroke:#000000;stroke-width:2.0px;stroke-linecap:butt;stroke-linejoin:miter;stroke-opacity:1;"/>
<path d="M 112.8,103.7 L 112.7,104.0 L 111.8,104.1" style="fill:none;stroke:#000000;stroke-width:2.0px;stroke-linecap:butt;stroke-linejoin:miter;stroke-opacity:1;"/>
<path d="M 97.1,106.3 L 96.3,106.5 L 96.1,106.2" style="fill:none;stroke:#000000;stroke-width:2.0px;stroke-linecap:butt;stroke-linejoin:miter;stroke-opacity:1;"/>
<path d="M 21.3,103.3 L 20.5,103.5 L 20.2,104.2" style="fill:none;stroke:#000000;stroke-width:2.0px;stroke-linecap:butt;stroke-linejoin:miter;stroke-opacity:1;"/>
<path d="M 14.8,118.1 L 14.5,118.9 L 15.0,119.5" style="fill:none;stroke:#000000;stroke-width:2.0px;stroke-linecap:butt;stroke-linejoin:miter;stroke-opacity:1;"/>
<path d="M 24.3,131.2 L 24.8,131.8 L 25.6,131.7" style="fill:none;stroke:#000000;stroke-width:2.0px;stroke-linecap:butt;stroke-linejoin:miter;stroke-opacity:1;"/>
<path d="M 40.3,129.4 L 41.2,129.3 L 41.5,128.5" style="fill:none;stroke:#000000;stroke-width:2.0px;stroke-linecap:butt;stroke-linejoin:miter;stroke-opacity:1;"/>
<path d="M 46.9,114.7 L 47.2,113.9 L 46.7,113.3" style="fill:none;stroke:#000000;stroke-width:2.0px;stroke-linecap:butt;stroke-linejoin:miter;stroke-opacity:1;"/>
<path class="atom-0" d="M 30.4 72.6 Q 30.4 71.5, 31.0 70.9 Q 31.5 70.3, 32.6 70.3 Q 33.6 70.3, 34.2 70.9 Q 34.7 71.5, 34.7 72.6 Q 34.7 73.8, 34.2 74.4 Q 33.6 75.1, 32.6 75.1 Q 31.5 75.1, 31.0 74.4 Q 30.4 73.8, 30.4 72.6 M 32.6 74.5 Q 33.3 74.5, 33.7 74.1 Q 34.1 73.6, 34.1 72.6 Q 34.1 71.7, 33.7 71.3 Q 33.3 70.8, 32.6 70.8 Q 31.9 70.8, 31.5 71.3 Q 31.1 71.7, 31.1 72.6 Q 31.1 73.6, 31.5 74.1 Q 31.9 74.5, 32.6 74.5 " fill="#FF0000"/>
<path class="atom-4" d="M 84.9 91.2 L 86.5 93.7 Q 86.6 93.9, 86.9 94.4 Q 87.1 94.8, 87.1 94.8 L 87.1 91.2 L 87.7 91.2 L 87.7 95.9 L 87.1 95.9 L 85.4 93.2 Q 85.3 92.8, 85.0 92.5 Q 84.8 92.1, 84.8 92.0 L 84.8 95.9 L 84.2 95.9 L 84.2 91.2 L 84.9 91.2 " fill="#0000FF"/>
<path class="atom-7" d="M 117.6 86.2 L 119.2 88.7 Q 119.3 89.0, 119.6 89.4 Q 119.8 89.8, 119.8 89.9 L 119.8 86.2 L 120.5 86.2 L 120.5 90.9 L 119.8 90.9 L 118.2 88.2 Q 118.0 87.9, 117.8 87.5 Q 117.6 87.2, 117.5 87.0 L 117.5 90.9 L 116.9 90.9 L 116.9 86.2 L 117.6 86.2 " fill="#0000FF"/>
<path class="atom-12" d="M 182.7 76.3 L 185.5 76.3 L 185.5 76.8 L 183.4 76.8 L 183.4 78.3 L 185.3 78.3 L 185.3 78.8 L 183.4 78.8 L 183.4 81.0 L 182.7 81.0 L 182.7 76.3 " fill="#33CCCC"/>
<path class="bond-0 atom-0 atom-1" d="M 390.0,91.6 L 386.0,86.6" style="fill:none;fill-rule:evenodd;stroke:#000000;stroke-width:2.0px;stroke-linecap:butt;stroke-linejoin:miter;stroke-opacity:1"/>
<path class="bond-0 atom-0 atom-1" d="M 386.0,86.6 L 382.1,81.6" style="fill:none;fill-rule:evenodd;stroke:#FF0000;stroke-width:2.0px;stroke-linecap:butt;stroke-linejoin:miter;stroke-opacity:1"/>
<path class="bond-1 atom-1 atom-2" d="M 377.0,79.1 L 370.1,80.1" style="fill:none;fill-rule:evenodd;stroke:#FF0000;stroke-width:2.0px;stroke-linecap:butt;stroke-linejoin:miter;stroke-opacity:1"/>
<path class="bond-1 atom-1 atom-2" d="M 370.1,80.1 L 363.3,81.1" style="fill:none;fill-rule:evenodd;stroke:#000000;stroke-width:2.0px;stroke-linecap:butt;stroke-linejoin:miter;stroke-opacity:1"/>
<path class="bond-2 atom-2 atom-3" d="M 363.3,81.1 L 357.3,96.5" style="fill:none;fill-rule:evenodd;stroke:#000000;stroke-width:2.0px;stroke-linecap:butt;stroke-linejoin:miter;stroke-opacity:1"/>
<path class="bond-2 atom-2 atom-3" d="M 360.5,81.6 L 355.5,94.3" style="fill:none;fill-rule:evenodd;stroke:#000000;stroke-width:2.0px;stroke-linecap:butt;stroke-linejoin:miter;stroke-opacity:1"/>
<path class="bond-3 atom-3 atom-4" d="M 357.3,96.5 L 340.9,99.0" style="fill:none;fill-rule:evenodd;stroke:#000000;stroke-width:2.0px;stroke-linecap:butt;stroke-linejoin:miter;stroke-opacity:1"/>
<path class="bond-4 atom-4 atom-5" d="M 340.9,99.0 L 330.6,86.1" style="fill:none;fill-rule:evenodd;stroke:#000000;stroke-width:2.0px;stroke-linecap:butt;stroke-linejoin:miter;stroke-opacity:1"/>
<path class="bond-4 atom-4 atom-5" d="M 342.0,96.4 L 333.4,85.7" style="fill:none;fill-rule:evenodd;stroke:#000000;stroke-width:2.0px;stroke-linecap:butt;stroke-linejoin:miter;stroke-opacity:1"/>
<path class="bond-5 atom-5 atom-6" d="M 330.6,86.1 L 323.6,87.2" style="fill:none;fill-rule:evenodd;stroke:#000000;stroke-width:2.0px;stroke-linecap:butt;stroke-linejoin:miter;stroke-opacity:1"/>
<path class="bond-5 atom-5 atom-6" d="M 323.6,87.2 L 316.5,88.2" style="fill:none;fill-rule:evenodd;stroke:#0000FF;stroke-width:2.0px;stroke-linecap:butt;stroke-linejoin:miter;stroke-opacity:1"/>
<path class="bond-6 atom-6 atom-7" d="M 311.9,85.7 L 307.9,80.7" style="fill:none;fill-rule:evenodd;stroke:#0000FF;stroke-width:2.0px;stroke-linecap:butt;stroke-linejoin:miter;stroke-opacity:1"/>
<path class="bond-6 atom-6 atom-7" d="M 307.9,80.7 L 303.9,75.6" style="fill:none;fill-rule:evenodd;stroke:#000000;stroke-width:2.0px;stroke-linecap:butt;stroke-linejoin:miter;stroke-opacity:1"/>
<path class="bond-7 atom-7 atom-8" d="M 303.9,75.6 L 287.5,78.1" style="fill:none;fill-rule:evenodd;stroke:#000000;stroke-width:2.0px;stroke-linecap:butt;stroke-linejoin:miter;stroke-opacity:1"/>
<path class="bond-8 atom-8 atom-9" d="M 287.5,78.1 L 285.1,84.4" style="fill:none;fill-rule:evenodd;stroke:#000000;stroke-width:2.0px;stroke-linecap:butt;stroke-linejoin:miter;stroke-opacity:1"/>
<path class="bond-8 atom-8 atom-9" d="M 285.1,84.4 L 282.6,90.6" style="fill:none;fill-rule:evenodd;stroke:#0000FF;stroke-width:2.0px;stroke-linecap:butt;stroke-linejoin:miter;stroke-opacity:1"/>
<path class="bond-9 atom-9 atom-10" d="M 279.2,93.9 L 272.1,95.0" style="fill:none;fill-rule:evenodd;stroke:#0000FF;stroke-width:2.0px;stroke-linecap:butt;stroke-linejoin:miter;stroke-opacity:1"/>
<path class="bond-9 atom-9 atom-10" d="M 272.1,95.0 L 265.1,96.0" style="fill:none;fill-rule:evenodd;stroke:#000000;stroke-width:2.0px;stroke-linecap:butt;stroke-linejoin:miter;stroke-opacity:1"/>
<path class="bond-10 atom-10 atom-11" d="M 265.1,96.0 L 254.8,83.1" style="fill:none;fill-rule:evenodd;stroke:#000000;stroke-width:2.0px;stroke-linecap:butt;stroke-linejoin:miter;stroke-opacity:1"/>
<path class="bond-11 atom-11 atom-12" d="M 254.8,83.1 L 238.4,85.6" style="fill:none;fill-rule:evenodd;stroke:#000000;stroke-width:2.0px;stroke-linecap:butt;stroke-linejoin:miter;stroke-opacity:1"/>
<path class="bond-12 atom-12 atom-13" d="M 239.8,85.4 L 235.7,80.1" style="fill:none;fill-rule:evenodd;stroke:#000000;stroke-width:2.0px;stroke-linecap:butt;stroke-linejoin:miter;stroke-opacity:1"/>
<path class="bond-12 atom-12 atom-13" d="M 235.7,80.1 L 231.5,74.8" style="fill:none;fill-rule:evenodd;stroke:#FF0000;stroke-width:2.0px;stroke-linecap:butt;stroke-linejoin:miter;stroke-opacity:1"/>
<path class="bond-12 atom-12 atom-13" d="M 237.9,86.9 L 233.7,81.6" style="fill:none;fill-rule:evenodd;stroke:#000000;stroke-width:2.0px;stroke-linecap:butt;stroke-linejoin:miter;stroke-opacity:1"/>
<path class="bond-12 atom-12 atom-13" d="M 233.7,81.6 L 229.5,76.4" style="fill:none;fill-rule:evenodd;stroke:#FF0000;stroke-width:2.0px;stroke-linecap:butt;stroke-linejoin:miter;stroke-opacity:1"/>
<path class="bond-13 atom-12 atom-14" d="M 238.4,85.6 L 232.4,101.0" style="fill:none;fill-rule:evenodd;stroke:#000000;stroke-width:2.0px;stroke-linecap:butt;stroke-linejoin:miter;stroke-opacity:1"/>
<path class="bond-14 atom-14 atom-15" d="M 232.4,101.0 L 216.0,103.5" style="fill:none;fill-rule:evenodd;stroke:#000000;stroke-width:2.0px;stroke-linecap:butt;stroke-linejoin:miter;stroke-opacity:1"/>
<path class="bond-14 atom-14 atom-15" d="M 231.4,103.6 L 217.8,105.7" style="fill:none;fill-rule:evenodd;stroke:#000000;stroke-width:2.0px;stroke-linecap:butt;stroke-linejoin:miter;stroke-opacity:1"/>
<path class="bond-15 atom-15 atom-16" d="M 216.0,103.5 L 210.0,118.9" style="fill:none;fill-rule:evenodd;stroke:#000000;stroke-width:2.0px;stroke-linecap:butt;stroke-linejoin:miter;stroke-opacity:1"/>
<path class="bond-16 atom-16 atom-17" d="M 210.0,118.9 L 220.3,131.8" style="fill:none;fill-rule:evenodd;stroke:#000000;stroke-width:2.0px;stroke-linecap:butt;stroke-linejoin:miter;stroke-opacity:1"/>
<path class="bond-16 atom-16 atom-17" d="M 212.8,118.4 L 221.4,129.1" style="fill:none;fill-rule:evenodd;stroke:#000000;stroke-width:2.0px;stroke-linecap:butt;stroke-linejoin:miter;stroke-opacity:1"/>
<path class="bond-17 atom-17 atom-18" d="M 220.3,131.8 L 236.7,129.3" style="fill:none;fill-rule:evenodd;stroke:#000000;stroke-width:2.0px;stroke-linecap:butt;stroke-linejoin:miter;stroke-opacity:1"/>
<path class="bond-18 atom-18 atom-19" d="M 236.7,129.3 L 242.7,113.9" style="fill:none;fill-rule:evenodd;stroke:#000000;stroke-width:2.0px;stroke-linecap:butt;stroke-linejoin:miter;stroke-opacity:1"/>
<path class="bond-18 atom-18 atom-19" d="M 234.9,127.1 L 239.9,114.3" style="fill:none;fill-rule:evenodd;stroke:#000000;stroke-width:2.0px;stroke-linecap:butt;stroke-linejoin:miter;stroke-opacity:1"/>
<path class="bond-19 atom-9 atom-20" d="M 283.8,96.4 L 287.8,101.4" style="fill:none;fill-rule:evenodd;stroke:#0000FF;stroke-width:2.0px;stroke-linecap:butt;stroke-linejoin:miter;stroke-opacity:1"/>
<path class="bond-19 atom-9 atom-20" d="M 287.8,101.4 L 291.8,106.5" style="fill:none;fill-rule:evenodd;stroke:#000000;stroke-width:2.0px;stroke-linecap:butt;stroke-linejoin:miter;stroke-opacity:1"/>
<path class="bond-20 atom-20 atom-21" d="M 291.8,106.5 L 308.2,104.0" style="fill:none;fill-rule:evenodd;stroke:#000000;stroke-width:2.0px;stroke-linecap:butt;stroke-linejoin:miter;stroke-opacity:1"/>
<path class="bond-21 atom-5 atom-22" d="M 330.6,86.1 L 336.6,70.7" style="fill:none;fill-rule:evenodd;stroke:#000000;stroke-width:2.0px;stroke-linecap:butt;stroke-linejoin:miter;stroke-opacity:1"/>
<path class="bond-22 atom-22 atom-23" d="M 336.6,70.7 L 353.0,68.2" style="fill:none;fill-rule:evenodd;stroke:#000000;stroke-width:2.0px;stroke-linecap:butt;stroke-linejoin:miter;stroke-opacity:1"/>
<path class="bond-22 atom-22 atom-23" d="M 338.4,72.9 L 351.9,70.9" style="fill:none;fill-rule:evenodd;stroke:#000000;stroke-width:2.0px;stroke-linecap:butt;stroke-linejoin:miter;stroke-opacity:1"/>
<path class="bond-23 atom-23 atom-2" d="M 353.0,68.2 L 363.3,81.1" style="fill:none;fill-rule:evenodd;stroke:#000000;stroke-width:2.0px;stroke-linecap:butt;stroke-linejoin:miter;stroke-opacity:1"/>
<path class="bond-24 atom-21 atom-6" d="M 308.2,104.0 L 310.6,97.7" style="fill:none;fill-rule:evenodd;stroke:#000000;stroke-width:2.0px;stroke-linecap:butt;stroke-linejoin:miter;stroke-opacity:1"/>
<path class="bond-24 atom-21 atom-6" d="M 310.6,97.7 L 313.1,91.5" style="fill:none;fill-rule:evenodd;stroke:#0000FF;stroke-width:2.0px;stroke-linecap:butt;stroke-linejoin:miter;stroke-opacity:1"/>
<path class="bond-25 atom-19 atom-14" d="M 242.7,113.9 L 232.4,101.0" style="fill:none;fill-rule:evenodd;stroke:#000000;stroke-width:2.0px;stroke-linecap:butt;stroke-linejoin:miter;stroke-opacity:1"/>
<path d="M 357.6,95.8 L 357.3,96.5 L 356.5,96.7" style="fill:none;stroke:#000000;stroke-width:2.0px;stroke-linecap:butt;stroke-linejoin:miter;stroke-opacity:1;"/>
<path d="M 341.7,98.9 L 340.9,99.0 L 340.4,98.4" style="fill:none;stroke:#000000;stroke-width:2.0px;stroke-linecap:butt;stroke-linejoin:miter;stroke-opacity:1;"/>
<path d="M 304.1,75.9 L 303.9,75.6 L 303.1,75.8" style="fill:none;stroke:#000000;stroke-width:2.0px;stroke-linecap:butt;stroke-linejoin:miter;stroke-opacity:1;"/>
<path d="M 288.3,78.0 L 287.5,78.1 L 287.4,78.4" style="fill:none;stroke:#000000;stroke-width:2.0px;stroke-linecap:butt;stroke-linejoin:miter;stroke-opacity:1;"/>
<path d="M 265.5,96.0 L 265.1,96.0 L 264.6,95.4" style="fill:none;stroke:#000000;stroke-width:2.0px;stroke-linecap:butt;stroke-linejoin:miter;stroke-opacity:1;"/>
<path d="M 255.3,83.7 L 254.8,83.1 L 254.0,83.2" style="fill:none;stroke:#000000;stroke-width:2.0px;stroke-linecap:butt;stroke-linejoin:miter;stroke-opacity:1;"/>
<path d="M 239.2,85.4 L 238.4,85.6 L 238.1,86.3" style="fill:none;stroke:#000000;stroke-width:2.0px;stroke-linecap:butt;stroke-linejoin:miter;stroke-opacity:1;"/>
<path d="M 216.9,103.3 L 216.0,103.5 L 215.7,104.2" style="fill:none;stroke:#000000;stroke-width:2.0px;stroke-linecap:butt;stroke-linejoin:miter;stroke-opacity:1;"/>
<path d="M 210.3,118.1 L 210.0,118.9 L 210.5,119.5" style="fill:none;stroke:#000000;stroke-width:2.0px;stroke-linecap:butt;stroke-linejoin:miter;stroke-opacity:1;"/>
<path d="M 219.8,131.2 L 220.3,131.8 L 221.1,131.7" style="fill:none;stroke:#000000;stroke-width:2.0px;stroke-linecap:butt;stroke-linejoin:miter;stroke-opacity:1;"/>
<path d="M 235.9,129.4 L 236.7,129.3 L 237.0,128.5" style="fill:none;stroke:#000000;stroke-width:2.0px;stroke-linecap:butt;stroke-linejoin:miter;stroke-opacity:1;"/>
<path d="M 242.4,114.7 L 242.7,113.9 L 242.2,113.3" style="fill:none;stroke:#000000;stroke-width:2.0px;stroke-linecap:butt;stroke-linejoin:miter;stroke-opacity:1;"/>
<path d="M 291.6,106.2 L 291.8,106.5 L 292.6,106.3" style="fill:none;stroke:#000000;stroke-width:2.0px;stroke-linecap:butt;stroke-linejoin:miter;stroke-opacity:1;"/>
<path d="M 307.4,104.1 L 308.2,104.0 L 308.3,103.7" style="fill:none;stroke:#000000;stroke-width:2.0px;stroke-linecap:butt;stroke-linejoin:miter;stroke-opacity:1;"/>
<path d="M 336.3,71.5 L 336.6,70.7 L 337.4,70.6" style="fill:none;stroke:#000000;stroke-width:2.0px;stroke-linecap:butt;stroke-linejoin:miter;stroke-opacity:1;"/>
<path d="M 352.2,68.3 L 353.0,68.2 L 353.5,68.8" style="fill:none;stroke:#000000;stroke-width:2.0px;stroke-linecap:butt;stroke-linejoin:miter;stroke-opacity:1;"/>
<path class="atom-1" d="M 377.5 78.7 Q 377.5 77.5, 378.1 76.9 Q 378.6 76.3, 379.7 76.3 Q 380.7 76.3, 381.3 76.9 Q 381.8 77.5, 381.8 78.7 Q 381.8 79.8, 381.3 80.4 Q 380.7 81.1, 379.7 81.1 Q 378.6 81.1, 378.1 80.4 Q 377.5 79.8, 377.5 78.7 M 379.7 80.6 Q 380.4 80.6, 380.8 80.1 Q 381.2 79.6, 381.2 78.7 Q 381.2 77.7, 380.8 77.3 Q 380.4 76.8, 379.7 76.8 Q 379.0 76.8, 378.6 77.3 Q 378.2 77.7, 378.2 78.7 Q 378.2 79.6, 378.6 80.1 Q 379.0 80.6, 379.7 80.6 " fill="#FF0000"/>
<path class="atom-6" d="M 313.2 86.2 L 314.7 88.7 Q 314.9 89.0, 315.1 89.4 Q 315.4 89.8, 315.4 89.9 L 315.4 86.2 L 316.0 86.2 L 316.0 90.9 L 315.4 90.9 L 313.7 88.2 Q 313.5 87.9, 313.3 87.5 Q 313.1 87.2, 313.0 87.0 L 313.0 90.9 L 312.4 90.9 L 312.4 86.2 L 313.2 86.2 " fill="#0000FF"/>
<path class="atom-9" d="M 280.5 91.2 L 282.0 93.7 Q 282.1 93.9, 282.4 94.4 Q 282.6 94.8, 282.6 94.8 L 282.6 91.2 L 283.3 91.2 L 283.3 95.9 L 282.6 95.9 L 281.0 93.2 Q 280.8 92.8, 280.6 92.5 Q 280.4 92.1, 280.3 92.0 L 280.3 95.9 L 279.7 95.9 L 279.7 91.2 L 280.5 91.2 " fill="#0000FF"/>
<path class="atom-13" d="M 225.9 72.6 Q 225.9 71.5, 226.5 70.9 Q 227.1 70.3, 228.1 70.3 Q 229.1 70.3, 229.7 70.9 Q 230.3 71.5, 230.3 72.6 Q 230.3 73.8, 229.7 74.4 Q 229.1 75.1, 228.1 75.1 Q 227.1 75.1, 226.5 74.4 Q 225.9 73.8, 225.9 72.6 M 228.1 74.5 Q 228.8 74.5, 229.2 74.1 Q 229.6 73.6, 229.6 72.6 Q 229.6 71.7, 229.2 71.3 Q 228.8 70.8, 228.1 70.8 Q 227.4 70.8, 227.0 71.3 Q 226.6 71.7, 226.6 72.6 Q 226.6 73.6, 227.0 74.1 Q 227.4 74.5, 228.1 74.5 " fill="#FF0000"/>
<path class="bond-0 atom-0 atom-1" d="M 432.7,76.9 L 436.9,82.1" style="fill:none;fill-rule:evenodd;stroke:#FF0000;stroke-width:2.0px;stroke-linecap:butt;stroke-linejoin:miter;stroke-opacity:1"/>
<path class="bond-0 atom-0 atom-1" d="M 436.9,82.1 L 441.1,87.4" style="fill:none;fill-rule:evenodd;stroke:#000000;stroke-width:2.0px;stroke-linecap:butt;stroke-linejoin:miter;stroke-opacity:1"/>
<path class="bond-0 atom-0 atom-1" d="M 430.8,78.4 L 435.0,83.7" style="fill:none;fill-rule:evenodd;stroke:#FF0000;stroke-width:2.0px;stroke-linecap:butt;stroke-linejoin:miter;stroke-opacity:1"/>
<path class="bond-0 atom-0 atom-1" d="M 435.0,83.7 L 439.2,88.9" style="fill:none;fill-rule:evenodd;stroke:#000000;stroke-width:2.0px;stroke-linecap:butt;stroke-linejoin:miter;stroke-opacity:1"/>
<path class="bond-1 atom-1 atom-2" d="M 439.7,87.6 L 456.1,85.1" style="fill:none;fill-rule:evenodd;stroke:#000000;stroke-width:2.0px;stroke-linecap:butt;stroke-linejoin:miter;stroke-opacity:1"/>
<path class="bond-2 atom-2 atom-3" d="M 456.1,85.1 L 466.4,98.1" style="fill:none;fill-rule:evenodd;stroke:#000000;stroke-width:2.0px;stroke-linecap:butt;stroke-linejoin:miter;stroke-opacity:1"/>
<path class="bond-3 atom-3 atom-4" d="M 466.4,98.1 L 473.4,97.0" style="fill:none;fill-rule:evenodd;stroke:#000000;stroke-width:2.0px;stroke-linecap:butt;stroke-linejoin:miter;stroke-opacity:1"/>
<path class="bond-3 atom-3 atom-4" d="M 473.4,97.0 L 480.4,95.9" style="fill:none;fill-rule:evenodd;stroke:#0000FF;stroke-width:2.0px;stroke-linecap:butt;stroke-linejoin:miter;stroke-opacity:1"/>
<path class="bond-4 atom-4 atom-5" d="M 483.9,92.7 L 486.3,86.4" style="fill:none;fill-rule:evenodd;stroke:#0000FF;stroke-width:2.0px;stroke-linecap:butt;stroke-linejoin:miter;stroke-opacity:1"/>
<path class="bond-4 atom-4 atom-5" d="M 486.3,86.4 L 488.8,80.2" style="fill:none;fill-rule:evenodd;stroke:#000000;stroke-width:2.0px;stroke-linecap:butt;stroke-linejoin:miter;stroke-opacity:1"/>
<path class="bond-5 atom-5 atom-6" d="M 488.8,80.2 L 505.2,77.7" style="fill:none;fill-rule:evenodd;stroke:#000000;stroke-width:2.0px;stroke-linecap:butt;stroke-linejoin:miter;stroke-opacity:1"/>
<path class="bond-6 atom-6 atom-7" d="M 505.2,77.7 L 509.2,82.7" style="fill:none;fill-rule:evenodd;stroke:#000000;stroke-width:2.0px;stroke-linecap:butt;stroke-linejoin:miter;stroke-opacity:1"/>
<path class="bond-6 atom-6 atom-7" d="M 509.2,82.7 L 513.2,87.7" style="fill:none;fill-rule:evenodd;stroke:#0000FF;stroke-width:2.0px;stroke-linecap:butt;stroke-linejoin:miter;stroke-opacity:1"/>
<path class="bond-7 atom-7 atom-8" d="M 517.8,90.3 L 524.8,89.2" style="fill:none;fill-rule:evenodd;stroke:#0000FF;stroke-width:2.0px;stroke-linecap:butt;stroke-linejoin:miter;stroke-opacity:1"/>
<path class="bond-7 atom-7 atom-8" d="M 524.8,89.2 L 531.9,88.1" style="fill:none;fill-rule:evenodd;stroke:#000000;stroke-width:2.0px;stroke-linecap:butt;stroke-linejoin:miter;stroke-opacity:1"/>
<path class="bond-8 atom-8 atom-9" d="M 531.9,88.1 L 542.2,101.1" style="fill:none;fill-rule:evenodd;stroke:#000000;stroke-width:2.0px;stroke-linecap:butt;stroke-linejoin:miter;stroke-opacity:1"/>
<path class="bond-8 atom-8 atom-9" d="M 534.7,87.7 L 543.2,98.4" style="fill:none;fill-rule:evenodd;stroke:#000000;stroke-width:2.0px;stroke-linecap:butt;stroke-linejoin:miter;stroke-opacity:1"/>
<path class="bond-9 atom-9 atom-10" d="M 542.2,101.1 L 558.6,98.6" style="fill:none;fill-rule:evenodd;stroke:#000000;stroke-width:2.0px;stroke-linecap:butt;stroke-linejoin:miter;stroke-opacity:1"/>
<path class="bond-10 atom-10 atom-11" d="M 558.6,98.6 L 564.6,83.2" style="fill:none;fill-rule:evenodd;stroke:#000000;stroke-width:2.0px;stroke-linecap:butt;stroke-linejoin:miter;stroke-opacity:1"/>
<path class="bond-10 atom-10 atom-11" d="M 556.8,96.3 L 561.8,83.6" style="fill:none;fill-rule:evenodd;stroke:#000000;stroke-width:2.0px;stroke-linecap:butt;stroke-linejoin:miter;stroke-opacity:1"/>
<path class="bond-11 atom-11 atom-12" d="M 564.6,83.2 L 571.6,82.1" style="fill:none;fill-rule:evenodd;stroke:#000000;stroke-width:2.0px;stroke-linecap:butt;stroke-linejoin:miter;stroke-opacity:1"/>
<path class="bond-11 atom-11 atom-12" d="M 571.6,82.1 L 578.6,81.1" style="fill:none;fill-rule:evenodd;stroke:#00CC00;stroke-width:2.0px;stroke-linecap:butt;stroke-linejoin:miter;stroke-opacity:1"/>
<path class="bond-12 atom-11 atom-13" d="M 564.6,83.2 L 554.3,70.2" style="fill:none;fill-rule:evenodd;stroke:#000000;stroke-width:2.0px;stroke-linecap:butt;stroke-linejoin:miter;stroke-opacity:1"/>
<path class="bond-13 atom-13 atom-14" d="M 554.3,70.2 L 537.9,72.7" style="fill:none;fill-rule:evenodd;stroke:#000000;stroke-width:2.0px;stroke-linecap:butt;stroke-linejoin:miter;stroke-opacity:1"/>
<path class="bond-13 atom-13 atom-14" d="M 553.2,72.9 L 539.7,75.0" style="fill:none;fill-rule:evenodd;stroke:#000000;stroke-width:2.0px;stroke-linecap:butt;stroke-linejoin:miter;stroke-opacity:1"/>
<path class="bond-14 atom-7 atom-15" d="M 514.4,93.5 L 511.9,99.8" style="fill:none;fill-rule:evenodd;stroke:#0000FF;stroke-width:2.0px;stroke-linecap:butt;stroke-linejoin:miter;stroke-opacity:1"/>
<path class="bond-14 atom-7 atom-15" d="M 511.9,99.8 L 509.5,106.0" style="fill:none;fill-rule:evenodd;stroke:#000000;stroke-width:2.0px;stroke-linecap:butt;stroke-linejoin:miter;stroke-opacity:1"/>
<path class="bond-15 atom-15 atom-16" d="M 509.5,106.0 L 493.1,108.5" style="fill:none;fill-rule:evenodd;stroke:#000000;stroke-width:2.0px;stroke-linecap:butt;stroke-linejoin:miter;stroke-opacity:1"/>
<path class="bond-16 atom-1 atom-17" d="M 439.7,87.6 L 433.7,103.0" style="fill:none;fill-rule:evenodd;stroke:#000000;stroke-width:2.0px;stroke-linecap:butt;stroke-linejoin:miter;stroke-opacity:1"/>
<path class="bond-17 atom-17 atom-18" d="M 433.7,103.0 L 442.6,117.0" style="fill:none;fill-rule:evenodd;stroke:#000000;stroke-width:2.0px;stroke-linecap:butt;stroke-linejoin:miter;stroke-opacity:1"/>
<path class="bond-17 atom-17 atom-18" d="M 432.6,105.9 L 439.5,116.8" style="fill:none;fill-rule:evenodd;stroke:#000000;stroke-width:2.0px;stroke-linecap:butt;stroke-linejoin:miter;stroke-opacity:1"/>
<path class="bond-18 atom-18 atom-19" d="M 442.6,117.0 L 432.1,129.8" style="fill:none;fill-rule:evenodd;stroke:#000000;stroke-width:2.0px;stroke-linecap:butt;stroke-linejoin:miter;stroke-opacity:1"/>
<path class="bond-19 atom-19 atom-20" d="M 432.1,129.8 L 416.7,123.7" style="fill:none;fill-rule:evenodd;stroke:#000000;stroke-width:2.0px;stroke-linecap:butt;stroke-linejoin:miter;stroke-opacity:1"/>
<path class="bond-19 atom-19 atom-20" d="M 431.3,126.8 L 419.3,122.1" style="fill:none;fill-rule:evenodd;stroke:#000000;stroke-width:2.0px;stroke-linecap:butt;stroke-linejoin:miter;stroke-opacity:1"/>
<path class="bond-20 atom-20 atom-21" d="M 416.7,123.7 L 417.1,117.0" style="fill:none;fill-rule:evenodd;stroke:#000000;stroke-width:2.0px;stroke-linecap:butt;stroke-linejoin:miter;stroke-opacity:1"/>
<path class="bond-20 atom-20 atom-21" d="M 417.1,117.0 L 417.5,110.2" style="fill:none;fill-rule:evenodd;stroke:#CCCC00;stroke-width:2.0px;stroke-linecap:butt;stroke-linejoin:miter;stroke-opacity:1"/>
<path class="bond-21 atom-16 atom-4" d="M 493.1,108.5 L 489.1,103.5" style="fill:none;fill-rule:evenodd;stroke:#000000;stroke-width:2.0px;stroke-linecap:butt;stroke-linejoin:miter;stroke-opacity:1"/>
<path class="bond-21 atom-16 atom-4" d="M 489.1,103.5 L 485.1,98.5" style="fill:none;fill-rule:evenodd;stroke:#0000FF;stroke-width:2.0px;stroke-linecap:butt;stroke-linejoin:miter;stroke-opacity:1"/>
<path class="bond-22 atom-21 atom-17" d="M 419.7,106.7 L 426.7,104.8" style="fill:none;fill-rule:evenodd;stroke:#CCCC00;stroke-width:2.0px;stroke-linecap:butt;stroke-linejoin:miter;stroke-opacity:1"/>
<path class="bond-22 atom-21 atom-17" d="M 426.7,104.8 L 433.7,103.0" style="fill:none;fill-rule:evenodd;stroke:#000000;stroke-width:2.0px;stroke-linecap:butt;stroke-linejoin:miter;stroke-opacity:1"/>
<path class="bond-23 atom-14 atom-8" d="M 537.9,72.7 L 531.9,88.1" style="fill:none;fill-rule:evenodd;stroke:#000000;stroke-width:2.0px;stroke-linecap:butt;stroke-linejoin:miter;stroke-opacity:1"/>
<path d="M 440.5,87.5 L 439.7,87.6 L 439.4,88.4" style="fill:none;stroke:#000000;stroke-width:2.0px;stroke-linecap:butt;stroke-linejoin:miter;stroke-opacity:1;"/>
<path d="M 455.3,85.3 L 456.1,85.1 L 456.6,85.8" style="fill:none;stroke:#000000;stroke-width:2.0px;stroke-linecap:butt;stroke-linejoin:miter;stroke-opacity:1;"/>
<path d="M 465.9,97.4 L 466.4,98.1 L 466.8,98.0" style="fill:none;stroke:#000000;stroke-width:2.0px;stroke-linecap:butt;stroke-linejoin:miter;stroke-opacity:1;"/>
<path d="M 488.7,80.5 L 488.8,80.2 L 489.6,80.0" style="fill:none;stroke:#000000;stroke-width:2.0px;stroke-linecap:butt;stroke-linejoin:miter;stroke-opacity:1;"/>
<path d="M 504.3,77.8 L 505.2,77.7 L 505.4,77.9" style="fill:none;stroke:#000000;stroke-width:2.0px;stroke-linecap:butt;stroke-linejoin:miter;stroke-opacity:1;"/>
<path d="M 541.7,100.4 L 542.2,101.1 L 543.0,100.9" style="fill:none;stroke:#000000;stroke-width:2.0px;stroke-linecap:butt;stroke-linejoin:miter;stroke-opacity:1;"/>
<path d="M 557.7,98.7 L 558.6,98.6 L 558.9,97.8" style="fill:none;stroke:#000000;stroke-width:2.0px;stroke-linecap:butt;stroke-linejoin:miter;stroke-opacity:1;"/>
<path d="M 554.8,70.9 L 554.3,70.2 L 553.4,70.4" style="fill:none;stroke:#000000;stroke-width:2.0px;stroke-linecap:butt;stroke-linejoin:miter;stroke-opacity:1;"/>
<path d="M 538.7,72.6 L 537.9,72.7 L 537.6,73.5" style="fill:none;stroke:#000000;stroke-width:2.0px;stroke-linecap:butt;stroke-linejoin:miter;stroke-opacity:1;"/>
<path d="M 509.6,105.7 L 509.5,106.0 L 508.6,106.2" style="fill:none;stroke:#000000;stroke-width:2.0px;stroke-linecap:butt;stroke-linejoin:miter;stroke-opacity:1;"/>
<path d="M 493.9,108.4 L 493.1,108.5 L 492.9,108.3" style="fill:none;stroke:#000000;stroke-width:2.0px;stroke-linecap:butt;stroke-linejoin:miter;stroke-opacity:1;"/>
<path d="M 442.2,116.3 L 442.6,117.0 L 442.1,117.6" style="fill:none;stroke:#000000;stroke-width:2.0px;stroke-linecap:butt;stroke-linejoin:miter;stroke-opacity:1;"/>
<path d="M 432.6,129.1 L 432.1,129.8 L 431.3,129.5" style="fill:none;stroke:#000000;stroke-width:2.0px;stroke-linecap:butt;stroke-linejoin:miter;stroke-opacity:1;"/>
<path d="M 417.5,124.0 L 416.7,123.7 L 416.7,123.4" style="fill:none;stroke:#000000;stroke-width:2.0px;stroke-linecap:butt;stroke-linejoin:miter;stroke-opacity:1;"/>
<path class="atom-0" d="M 427.2 74.7 Q 427.2 73.6, 427.8 72.9 Q 428.3 72.3, 429.4 72.3 Q 430.4 72.3, 431.0 72.9 Q 431.5 73.6, 431.5 74.7 Q 431.5 75.8, 431.0 76.5 Q 430.4 77.1, 429.4 77.1 Q 428.3 77.1, 427.8 76.5 Q 427.2 75.8, 427.2 74.7 M 429.4 76.6 Q 430.1 76.6, 430.5 76.1 Q 430.9 75.6, 430.9 74.7 Q 430.9 73.8, 430.5 73.3 Q 430.1 72.8, 429.4 72.8 Q 428.7 72.8, 428.3 73.3 Q 427.9 73.8, 427.9 74.7 Q 427.9 75.6, 428.3 76.1 Q 428.7 76.6, 429.4 76.6 " fill="#FF0000"/>
<path class="atom-4" d="M 481.7 93.2 L 483.3 95.7 Q 483.4 96.0, 483.7 96.4 Q 483.9 96.9, 483.9 96.9 L 483.9 93.2 L 484.5 93.2 L 484.5 97.9 L 483.9 97.9 L 482.3 95.2 Q 482.1 94.9, 481.9 94.5 Q 481.7 94.2, 481.6 94.1 L 481.6 97.9 L 481.0 97.9 L 481.0 93.2 L 481.7 93.2 " fill="#0000FF"/>
<path class="atom-7" d="M 514.5 88.3 L 516.0 90.8 Q 516.1 91.0, 516.4 91.4 Q 516.6 91.9, 516.6 91.9 L 516.6 88.3 L 517.3 88.3 L 517.3 93.0 L 516.6 93.0 L 515.0 90.2 Q 514.8 89.9, 514.6 89.6 Q 514.4 89.2, 514.3 89.1 L 514.3 93.0 L 513.7 93.0 L 513.7 88.3 L 514.5 88.3 " fill="#0000FF"/>
<path class="atom-12" d="M 579.1 80.9 Q 579.1 79.7, 579.7 79.1 Q 580.2 78.5, 581.3 78.5 Q 582.2 78.5, 582.8 79.1 L 582.3 79.5 Q 581.9 79.0, 581.3 79.0 Q 580.6 79.0, 580.2 79.5 Q 579.8 80.0, 579.8 80.9 Q 579.8 81.8, 580.2 82.3 Q 580.6 82.7, 581.3 82.7 Q 581.9 82.7, 582.5 82.4 L 582.7 82.9 Q 582.4 83.1, 582.0 83.2 Q 581.7 83.3, 581.3 83.3 Q 580.2 83.3, 579.7 82.6 Q 579.1 82.0, 579.1 80.9 " fill="#00CC00"/>
<path class="atom-12" d="M 583.2 78.2 L 583.8 78.2 L 583.8 83.2 L 583.2 83.2 L 583.2 78.2 " fill="#00CC00"/>
<path class="atom-21" d="M 416.3 108.8 Q 416.4 108.8, 416.6 108.9 Q 416.8 109.0, 417.1 109.1 Q 417.3 109.1, 417.5 109.1 Q 418.0 109.1, 418.3 108.9 Q 418.5 108.7, 418.5 108.3 Q 418.5 108.1, 418.4 107.9 Q 418.3 107.7, 418.1 107.7 Q 417.9 107.6, 417.5 107.5 Q 417.1 107.3, 416.9 107.2 Q 416.6 107.1, 416.4 106.9 Q 416.3 106.6, 416.3 106.2 Q 416.3 105.6, 416.7 105.2 Q 417.1 104.9, 417.9 104.9 Q 418.4 104.9, 419.0 105.1 L 418.9 105.6 Q 418.3 105.4, 417.9 105.4 Q 417.4 105.4, 417.2 105.6 Q 416.9 105.8, 416.9 106.1 Q 416.9 106.4, 417.0 106.5 Q 417.2 106.7, 417.4 106.7 Q 417.6 106.8, 417.9 106.9 Q 418.3 107.1, 418.5 107.2 Q 418.8 107.3, 419.0 107.6 Q 419.2 107.9, 419.2 108.3 Q 419.2 109.0, 418.7 109.3 Q 418.3 109.7, 417.6 109.7 Q 417.2 109.7, 416.8 109.6 Q 416.5 109.5, 416.2 109.3 L 416.3 108.8 " fill="#CCCC00"/>
</svg>